<svg id="Capa_1" enable-background="new 0 0 512 512" height="512" viewBox="0 0 512 512" width="512" xmlns="http://www.w3.org/2000/svg"><g><path d="m382.673 431.242h-382.672v-165h382.672z" fill="#50c5ff"/><path d="m382.673 431.242h-191.4v-165h191.4z" fill="#488aff"/><path d="m59.919 326.242h262.707v30h-262.707z" fill="#48568c"/><path d="m191.273 326.242h131.354v30h-131.354z" fill="#2c3b73"/><g><path d="m382.673 512h-382.672v-95.758h382.672z" fill="#48568c"/></g><g><path d="m382.673 512h-191.4v-95.758h191.4z" fill="#2c3b73"/></g><g><path d="m381.974 236.042h-212.967c-18.547 0-34.478-10.645-41.575-27.78s-3.359-35.927 9.757-49.04l73.185-73.179h121.898l99.853 99.851z" fill="#f9c4b9"/></g><g><path d="m289.929 341.242h-196.552v-195.2h196.552z" fill="#f5fbff"/></g><g><path d="m289.929 341.242h-98.656v-195.2h98.656z" fill="#cae1f9"/></g><path d="m180.542 288.706-44.793-44.795 21.212-21.212 23.581 23.58 47.702-47.701 21.213 21.213z" fill="#ff3924"/><path d="m228.244 198.578-36.971 36.971v42.426l58.184-58.184z" fill="#d8270f"/><path d="m392.273 146.042h-145.01c-24.813 0-45 20.187-45 45s20.187 45 45 45h134.711l50.151-50.149z" fill="#f9c4b9"/><path d="m432.125 185.893-53.009-53.008-103.157 103.157h106.015z" fill="#ffb19e"/><path d="m425.966 192.157-106.119-106.119 86.038-86.038 106.113 105.113z" fill="#10bb67"/><path d="m511.999 105.113-52.804-52.306-86.29 86.289 53.061 53.061z" fill="#02963e"/></g></svg>