<svg id="Capa_1" enable-background="new 0 0 512 512" height="512" viewBox="0 0 512 512" width="512" xmlns="http://www.w3.org/2000/svg"><path d="m256 511.716-57.847-39.856-70.051 5.631-30.089-63.503-63.503-30.091 5.631-70.05-39.857-57.847 39.856-57.847-5.631-70.051 63.503-30.089 30.089-63.503 70.05 5.631 57.849-39.857 57.847 39.856 70.052-5.631 30.089 63.503 63.503 30.089-5.632 70.05 39.857 57.849-39.856 57.847 5.63 70.051-63.502 30.089-30.09 63.503-70.051-5.631z" fill="#ffe375"/><path d="m511.716 256-39.858-57.847 5.632-70.051-63.503-30.089-30.089-63.503-70.051 5.631-57.847-39.857v511.432l57.847-39.857 70.05 5.631 30.09-63.503 63.502-30.089-5.63-70.051z" fill="#ffb725"/><path d="m256 433.5c-97.874 0-177.5-79.626-177.5-177.5s79.626-177.5 177.5-177.5 177.5 79.626 177.5 177.5-79.626 177.5-177.5 177.5z" fill="#ffb725"/><path d="m256 78.5v355c97.874 0 177.5-79.626 177.5-177.5s-79.626-177.5-177.5-177.5z" fill="#ff9000"/><path d="m512 361.9h-512v-211.8h512z" fill="#10bb67"/><path d="m512 361.9h-256v-211.8h256z" fill="#02963e"/><path d="m97.372 206.72 20.183 67.517 19.892-67.517h29.766l-37.896 103.09h-23.521l-38.336-103.09z" fill="#f5fbff"/><path d="m360.761 231.403h-29.62v78.407h-28.313v-78.407h-29.766v-24.683h87.699z" fill="#cae1f9"/><path d="m444.54 285.126v24.684h-73.47v-103.09h72.163v24.684h-43.85v14.52h37.461v22.941h-37.461v16.262h45.157z" fill="#cae1f9"/><path d="m256 222.99c-9.55-10.27-23.19-16.69-38.33-16.69-28.91 0-52.35 23.41-52.35 52.27 0 28.87 23.44 52.27 52.35 52.27 15.14 0 28.78-6.42 38.33-16.69 8.7-9.33 14.01-21.84 14.01-35.58s-5.31-26.25-14.01-35.58zm-38.37 62.73c-13.01 0-23.56-12.15-23.56-27.15 0-14.99 10.55-27.15 23.56-27.15 13.02 0 23.57 12.16 23.57 27.15 0 15-10.55 27.15-23.57 27.15z" fill="#f5fbff"/><path d="m256 222.99v71.16c8.7-9.33 14.01-21.84 14.01-35.58s-5.31-26.25-14.01-35.58z" fill="#cae1f9"/></svg>