<svg id="Capa_1" enable-background="new 0 0 511.918 511.918" height="512" viewBox="0 0 511.918 511.918" width="512" xmlns="http://www.w3.org/2000/svg"><g><path d="m0 180.396h511.918v270.959h-511.918z" fill="#f5fbff"/><path d="m0 315.875h511.918v135.48h-511.918z" fill="#cae1f9"/><path d="m270.959 210.396h210.959v210.959h-210.959z" fill="#50c5ff"/><path d="m270.959 315.875h210.959v105.479h-210.959z" fill="#488aff"/><path d="m360.83 377.596-58.606-58.607 21.212-21.213 37.394 37.393 68.601-68.601 21.213 21.213z" fill="#f5fbff"/><path d="m380.124 315.875-19.294 19.294-19.294-19.294h-36.199l-3.113 3.114 58.606 58.607 61.72-61.721z" fill="#cae1f9"/><path d="m396.551 60.563h-292.519c-24.79 0-44.958 20.168-44.958 44.958s20.168 44.959 44.958 44.959h292.519l56.293-36.729v-16.46z" fill="#ffb725"/><path d="m59.074 105.521c0 24.79 20.168 44.958 44.958 44.958h292.519l56.293-36.729v-8.229z" fill="#ff9000"/><path d="m30 210.396h210.959v210.959h-210.959z" fill="#fd4e26"/><path d="m30 315.875h210.959v105.479h-210.959z" fill="#d8270f"/><path d="m186.849 388.458 21.213-21.213-51.331-51.331 51.331-51.33-21.213-21.213-51.331 51.33-51.331-51.33-21.213 21.213 51.331 51.33-51.331 51.331 21.213 21.213 51.331-51.331z" fill="#f5fbff"/><path d="m156.77 315.875h-42.504l.039.039-51.331 51.331 21.213 21.213 51.331-51.331 51.331 51.331 21.213-21.213-51.331-51.331z" fill="#cae1f9"/><path d="m118.99 150.48h-14.958c-24.79 0-44.958-20.168-44.958-44.959 0-24.79 20.168-44.958 44.958-44.958h14.958z" fill="#fd4e26"/><path d="m396.551 60.563h-8.378v89.917h8.378l56.293-36.729v-16.46z" fill="#f9c4b9"/><path d="m59.074 105.521c0 24.79 20.168 44.958 44.958 44.958h14.958v-44.958z" fill="#d8270f"/><path d="m388.173 105.521v44.959h8.378l56.293-36.729v-8.23z" fill="#ffb19e"/></g></svg>