<svg id="Capa_1" enable-background="new 0 0 512 512" height="512" viewBox="0 0 512 512" width="512" xmlns="http://www.w3.org/2000/svg"><g><g><path d="m420.39 512h-328.78v-512h328.78z" fill="#f5fbff"/></g><g><path d="m420.39 512h-164.39v-512h164.39z" fill="#cae1f9"/></g><path d="m420.385 402h-328.77v-342.359h328.77z" fill="#48568c"/><path d="m420.385 402h-164.385v-342.359h164.385z" fill="#2c3b73"/><path d="m118.832 372h268.77v-282.359h-268.77z" fill="#50c5ff"/><path d="m256 372h131.603v-282.359h-131.603z" fill="#488aff"/><path d="m226.46 442h59.081v30h-59.081z" fill="#48568c"/><path d="m256 442h29.541v30h-29.541z" fill="#2c3b73"/><g><path d="m256 329.837c-57.645 0-104.542-46.897-104.542-104.542s46.898-104.542 104.542-104.542 104.542 46.898 104.542 104.542c0 57.645-46.897 104.542-104.542 104.542z" fill="#f5fbff"/></g><path d="m256 120.753v209.084c57.645 0 104.542-46.897 104.542-104.542s-46.897-104.542-104.542-104.542z" fill="#cae1f9"/><path d="m245.243 273.811-43.699-43.698 21.213-21.213 22.486 22.485 44-44 21.213 21.213z" fill="#ff3924"/><path d="m289.243 187.385-33.243 33.243v42.426l54.456-54.456z" fill="#d8270f"/></g></svg>