<svg id="Capa_1" enable-background="new 0 0 512 512" height="512" viewBox="0 0 512 512" width="512" xmlns="http://www.w3.org/2000/svg"><g><path d="m211.042 405.424h89.916v60.076h-89.916z" fill="#48568c"/><path d="m256 405.424h44.958v60.076h-44.958z" fill="#2c3b73"/><path d="m167.666 450.341h176.667v30h-176.667z" fill="#f5fbff"/><path d="m256 450.341h88.333v30h-88.333z" fill="#cae1f9"/><g><path d="m512 420.424h-512v-75h512z" fill="#f5fbff"/></g><g><path d="m512 420.424h-256v-75h256z" fill="#cae1f9"/></g><path d="m512 360.424h-512v-328.765h512z" fill="#48568c"/><path d="m512 360.424h-256v-328.765h256z" fill="#2c3b73"/><path d="m30 61.659h452v268.765h-452z" fill="#50c5ff"/><path d="m256 61.659h226v268.765h-226z" fill="#488aff"/><g fill="#cae1f9"><path d="m300 270.336h76.041v30h-76.041z"/><path d="m300 210.761h152.082v30h-152.082z"/><path d="m300 151.185h152.082v30h-152.082z"/><path d="m300 91.609h76.041v30h-76.041z"/></g><g><path d="m165.569 300.583c-57.645 0-104.542-46.897-104.542-104.541s46.898-104.542 104.542-104.542c57.645 0 104.542 46.898 104.542 104.542s-46.897 104.541-104.542 104.541z" fill="#f5fbff"/></g><path d="m256 143.641v104.802c8.967-15.416 14.111-33.318 14.111-52.401s-5.143-36.985-14.111-52.401z" fill="#cae1f9"/><path d="m154.812 244.558-43.698-43.698 21.213-21.213 22.485 22.485 44-44 21.213 21.213z" fill="#ff3924"/></g></svg>