<svg id="Capa_1" enable-background="new 0 0 512 512" height="512" viewBox="0 0 512 512" width="512" xmlns="http://www.w3.org/2000/svg"><g><path d="m462.155 512h-412.31v-512h263.736l148.574 148.365z" fill="#f5fbff"/><path d="m249.627 208.459h-138.707v-25.162c0-18.649 7.579-35.209 21.341-46.628 12.456-10.335 29.507-16.026 48.012-16.026s35.556 5.691 48.012 16.026c13.763 11.419 21.343 27.979 21.343 46.628v25.162z" fill="#48568c"/><path d="m180.273 150.643c-25.542 0-46.321-20.78-46.321-46.322 0-25.541 20.779-46.321 46.321-46.321s46.321 20.78 46.321 46.321c.001 25.542-20.779 46.322-46.321 46.322z" fill="#f9c4b9"/><path d="m462.155 148.365-148.574-148.365h-57.581v512h206.155z" fill="#cae1f9"/><path d="m279.596 118.365h121.454v30h-121.454z" fill="#488aff"/><path d="m110.95 238.615h290.101v30h-290.101z" fill="#50c5ff"/><g fill="#488aff"><path d="m256 238.615h145.051v30h-145.051z"/><path d="m279.596 58.24h60.727v30h-60.727z"/><path d="m279.596 178.49h60.727v30h-60.727z"/><path d="m279.596 358.896h121.454v30h-121.454z"/><path d="m279.596 298.771h121.454v30h-121.454z"/></g><g><path d="m462.155 148.365h-148.574v-148.365z" fill="#488aff"/></g><path d="m279.596 419.021h60.727v30h-60.727z" fill="#488aff"/><path d="m249.627 449.094h-138.707v-25.162c0-18.649 7.579-35.209 21.341-46.627 12.456-10.335 29.507-16.026 48.012-16.026s35.556 5.691 48.012 16.026c13.763 11.419 21.343 27.979 21.343 46.628v25.161z" fill="#48568c"/><path d="m180.273 391.278c-25.542 0-46.321-20.78-46.321-46.322s20.779-46.321 46.321-46.321 46.321 20.78 46.321 46.321c.001 25.543-20.779 46.322-46.321 46.322z" fill="#f9c4b9"/></g></svg>