<svg id="Capa_1" enable-background="new 0 0 512 512" height="512" viewBox="0 0 512 512" width="512" xmlns="http://www.w3.org/2000/svg"><g><path d="m61.253 15h30v59h-30z" fill="#cae1f9"/><path d="m241 15h30v59h-30z" fill="#cae1f9"/><path d="m33.594 0h85.316v30h-85.316z" fill="#ffb725"/><path d="m256 15h15v59h-15z" fill="#9fc6e2"/><path d="m420.748 15h30v59h-30z" fill="#9fc6e2"/><path d="m213.342 0h85.316v30h-85.316z" fill="#ffb725"/><path d="m256 0h42.658v30h-42.658z" fill="#ff9000"/><path d="m393.089 0h85.316v30h-85.316z" fill="#ff9000"/><path d="m61.253 374.765h30v59h-30z" fill="#cae1f9"/><path d="m33.594 418.765h85.316v30h-85.316z" fill="#ffb725"/><path d="m420.748 374.765h30v59h-30z" fill="#9fc6e2"/><path d="m393.089 418.765h85.316v30h-85.316z" fill="#ff9000"/><path d="m330.874 374.765v44h-149.749v-44h-30v74h209.749v-74z" fill="#48568c"/><path d="m360.874 374.765h-30v44h-74.874v30h104.874z" fill="#2c3b73"/><g><path d="m300.958 512h-89.916v-137.235h89.916z" fill="#50c5ff"/></g><g><path d="m300.958 512h-44.958v-137.235h44.958z" fill="#488aff"/></g><path d="m512 388.765h-512v-328.765h512z" fill="#48568c"/><path d="m512 388.765h-256v-328.765h256z" fill="#2c3b73"/><path d="m30 90h452v268.765h-452z" fill="#f5fbff"/><path d="m256 90h226v268.765h-226z" fill="#cae1f9"/><g fill="#488aff"><path d="m281.666 239.101h170.415v30h-170.415z"/><path d="m281.666 120h87.334v30h-87.334z"/><path d="m281.666 298.677h87.334v30h-87.334z"/><path d="m281.666 179.525h170.415v30h-170.415z"/></g><path d="m251.717 328.677h-190.69v-30.022c0-25.395 10.283-47.913 28.954-63.405 17.127-14.211 40.704-22.038 66.39-22.038 25.685 0 49.263 7.826 66.39 22.037 18.672 15.493 28.956 38.01 28.956 63.405z" fill="#fd4e26"/><path d="m156.372 243.213c-33.801 0-61.299-27.499-61.299-61.299s27.498-61.299 61.299-61.299 61.3 27.498 61.3 61.299-27.499 61.299-61.3 61.299z" fill="#f9c4b9"/></g></svg>