<svg id="Capa_1" enable-background="new 0 0 512 512" height="512" viewBox="0 0 512 512" width="512" xmlns="http://www.w3.org/2000/svg"><g><path d="m512 480.747h-512v-328.764h512z" fill="#f5fbff"/><path d="m512 480.747h-512v-164.382h512z" fill="#cae1f9"/><path d="m61.027 420.572v-207.552h207.552v207.552z" fill="#50c5ff"/><path d="m61.027 420.572v-104.207h207.552v104.206h-207.552z" fill="#488aff"/><path d="m153.302 367.857-45.976-45.976 21.213-21.213 24.763 24.762 47.758-47.758 21.213 21.213z" fill="#f5fbff"/><path d="m162.367 316.365-9.065 9.065-9.065-9.065h-31.395l-5.516 5.516 45.976 45.976 51.491-51.492z" fill="#cae1f9"/><path d="m314.476 390.572h137.606v30h-137.606z" fill="#488aff"/><path d="m452.201 361.084h-137.402v-25.04c0-18.48 7.511-34.89 21.15-46.207 12.338-10.237 29.225-15.875 47.55-15.875s35.212 5.638 47.551 15.875c13.64 11.317 21.151 27.727 21.151 46.207z" fill="#48568c"/><path d="m317.871 316.365c-2.023 6.166-3.072 12.778-3.072 19.679v25.04h137.402v-25.04c0-6.901-1.05-13.512-3.072-19.679z" fill="#2c3b73"/><path d="m383.5 303.961c-25.335 0-45.946-20.611-45.946-45.946 0-25.334 20.611-45.945 45.946-45.945s45.946 20.611 45.946 45.945c0 25.335-20.611 45.946-45.946 45.946z" fill="#f9c4b9"/><path d="m396.592 31.253h-292.519c-24.79 0-44.958 20.168-44.958 44.958s20.168 44.958 44.958 44.958h292.519l56.293-36.729v-16.459z" fill="#ffb725"/><path d="m59.115 76.211c0 24.79 20.168 44.958 44.958 44.958h292.519l56.293-36.729v-8.229z" fill="#ff9000"/><path d="m119.031 121.169h-14.958c-24.79 0-44.958-20.168-44.958-44.958s20.168-44.958 44.958-44.958h14.958z" fill="#fd4e26"/><path d="m396.592 31.253h-8.378v89.916h8.378l56.293-36.729v-16.459z" fill="#f9c4b9"/><path d="m59.115 76.211c0 24.79 20.168 44.958 44.958 44.958h14.958v-44.958z" fill="#d8270f"/><path d="m388.214 76.211v44.958h8.378l56.293-36.729v-8.229z" fill="#ffb19e"/></g></svg>