<svg id="Capa_1" enable-background="new 0 0 512.068 512.068" height="512" viewBox="0 0 512.068 512.068" width="512" xmlns="http://www.w3.org/2000/svg"><g><path d="m190.689 489.361h-190.689v-49.528c0-25.395 10.282-47.913 28.953-63.405 17.127-14.211 40.705-22.038 66.391-22.038 25.684 0 49.263 7.826 66.39 22.037 18.673 15.493 28.956 38.01 28.956 63.405v49.529z" fill="#50c5ff"/><path d="m190.689 439.833c0-25.395-10.283-47.913-28.956-63.405-17.127-14.211-40.704-22.037-66.389-22.037v134.971h95.345z" fill="#488aff"/><path d="m512.068 489.361h-190.69v-49.528c0-25.395 10.282-47.913 28.953-63.405 17.127-14.211 40.705-22.038 66.391-22.038 25.685 0 49.263 7.826 66.391 22.037 18.672 15.493 28.955 38.01 28.955 63.405z" fill="#50c5ff"/><path d="m512.068 439.833c0-25.395-10.283-47.913-28.956-63.405-17.127-14.211-40.704-22.037-66.389-22.037v134.971h95.345z" fill="#488aff"/><path d="m416.724 384.39c-33.801 0-61.3-27.499-61.3-61.299 0-33.801 27.499-61.299 61.3-61.299s61.3 27.499 61.3 61.299c-.001 33.801-27.5 61.299-61.3 61.299z" fill="#f9c4b9"/><path d="m416.724 261.792v122.598c33.801 0 61.3-27.499 61.3-61.299-.001-33.801-27.5-61.299-61.3-61.299z" fill="#ffb19e"/><path d="m351.379 489.361h-190.69v-49.528c0-25.395 10.282-47.913 28.953-63.405 17.127-14.211 40.705-22.038 66.391-22.038 25.685 0 49.263 7.826 66.39 22.037 18.673 15.493 28.956 38.01 28.956 63.405z" fill="#48568c"/><path d="m95.345 384.39c-33.801 0-61.3-27.499-61.3-61.299 0-33.801 27.499-61.299 61.3-61.299s61.3 27.499 61.3 61.299c0 33.801-27.5 61.299-61.3 61.299z" fill="#f9c4b9"/><path d="m95.345 261.792v122.598c33.801 0 61.3-27.499 61.3-61.299 0-33.801-27.5-61.299-61.3-61.299z" fill="#ffb19e"/><path d="m351.379 439.833c0-25.395-10.283-47.913-28.956-63.405-17.127-14.211-40.704-22.037-66.389-22.037v134.971h95.345z" fill="#2c3b73"/><path d="m256.034 384.39c-33.801 0-61.3-27.499-61.3-61.299 0-33.801 27.499-61.299 61.3-61.299s61.3 27.499 61.3 61.299c0 33.801-27.499 61.299-61.3 61.299z" fill="#f9c4b9"/><path d="m256.034 261.792v122.598c33.801 0 61.3-27.499 61.3-61.299 0-33.801-27.499-61.299-61.3-61.299z" fill="#ffb19e"/><g><path d="m256.034 231.792c-57.645 0-104.542-46.897-104.542-104.542s46.897-104.542 104.542-104.542 104.542 46.897 104.542 104.542c0 57.644-46.897 104.542-104.542 104.542z" fill="#f5fbff"/></g><path d="m256.034 22.707v209.084c57.645 0 104.542-46.897 104.542-104.542 0-57.644-46.897-104.542-104.542-104.542z" fill="#cae1f9"/><path d="m245.276 175.766-43.697-43.699 21.213-21.212 22.484 22.484 44-43.999 21.213 21.213z" fill="#fd4e26"/><path d="m289.276 89.34-33.242 33.242v42.426l54.455-54.455z" fill="#d8270f"/></g></svg>