<svg id="Capa_1" enable-background="new 0 0 512 512" height="512" viewBox="0 0 512 512" width="512" xmlns="http://www.w3.org/2000/svg"><g><path d="m330.973 162.913h-149.946v-26.213c0-20.107 8.163-37.955 22.986-50.254 13.466-11.173 31.928-17.326 51.985-17.326 20.058 0 38.52 6.153 51.985 17.326 14.824 12.3 22.988 30.147 22.988 50.255v26.212z" fill="#48568c"/><path d="m330.973 136.7c0-20.107-8.164-37.955-22.988-50.255-13.466-11.173-31.928-17.326-51.985-17.326v93.794h74.973z" fill="#2c3b73"/><path d="m330.958 512h-149.916v-319.087h149.916z" fill="#50c5ff"/><path d="m256 99.119c-27.327 0-49.56-22.232-49.56-49.56 0-27.327 22.233-49.559 49.56-49.559s49.56 22.232 49.56 49.56c0 27.327-22.233 49.559-49.56 49.559z" fill="#f9c4b9"/><path d="m256 0v99.119c27.327 0 49.56-22.232 49.56-49.56 0-27.327-22.233-49.559-49.56-49.559z" fill="#ffb19e"/><path d="m330.958 512h-74.958v-319.087h74.958z" fill="#488aff"/><path d="m149.944 295.825h-149.944v-26.212c0-20.108 8.163-37.955 22.986-50.255 13.466-11.172 31.928-17.326 51.985-17.326s38.518 6.153 51.984 17.326c14.824 12.3 22.988 30.147 22.988 50.255v26.212z" fill="#fd4e26"/><path d="m149.944 269.612c0-20.108-8.164-37.955-22.988-50.255-13.466-11.173-31.927-17.326-51.984-17.326v93.793h74.972z" fill="#d8270f"/><path d="m149.931 512h-149.917v-186.175h149.917z" fill="#ffb725"/><path d="m74.972 232.032c-27.327 0-49.56-22.232-49.56-49.559s22.232-49.56 49.56-49.56 49.561 22.232 49.561 49.56c-.001 27.326-22.233 49.559-49.561 49.559z" fill="#f9c4b9"/><path d="m124.532 182.472c0-27.327-22.232-49.559-49.56-49.56v99.119c27.328.001 49.56-22.232 49.56-49.559z" fill="#ffb19e"/><path d="m149.931 512h-74.959v-186.175h74.958v186.175z" fill="#ff9000"/><path d="m512 355.825h-149.944v-26.212c0-20.108 8.163-37.955 22.986-50.255 13.466-11.172 31.928-17.326 51.985-17.326s38.519 6.153 51.984 17.326c14.824 12.3 22.988 30.147 22.988 50.255v26.212z" fill="#10bb67"/><path d="m512 329.612c0-20.108-8.164-37.955-22.988-50.255-13.466-11.173-31.927-17.326-51.984-17.326v93.793h74.972z" fill="#02963e"/><path d="m511.986 512h-149.917v-126.175h149.917z" fill="#10bb67"/><path d="m437.027 292.032c-27.327 0-49.56-22.232-49.56-49.559s22.232-49.56 49.56-49.56 49.561 22.232 49.561 49.56c0 27.326-22.233 49.559-49.561 49.559z" fill="#f9c4b9"/><path d="m486.588 242.472c0-27.327-22.232-49.559-49.56-49.56v99.119c27.328.001 49.56-22.232 49.56-49.559z" fill="#ffb19e"/><path d="m511.986 512h-74.958v-126.175h74.958z" fill="#02963e"/></g></svg>