<svg id="Capa_1" enable-background="new 0 0 512 512" height="512" viewBox="0 0 512 512" width="512" xmlns="http://www.w3.org/2000/svg"><g><path d="m168.623 330.958h282.125v-74.958h61.252v-74.958h-343.377z" fill="#50c5ff"/><path d="m168.623.014v149.917h186.689v-74.959h156.688v-74.958z" fill="#ffb725"/><path d="m168.623 511.986h108.344v-74.958h235.033v-74.959h-343.377z" fill="#10bb67"/><path d="m168.623 330.958v-74.958h282.125v74.958z" fill="#488aff"/><path d="m168.623 149.931v-74.959h186.689v74.958h-186.689z" fill="#ff9000"/><path d="m168.623 511.986v-74.958h108.344v74.958z" fill="#02963e"/><path d="m138.706 331.229h-138.706v-25.162c0-18.649 7.579-35.209 21.341-46.628 12.456-10.335 29.506-16.026 48.012-16.026 18.505 0 35.555 5.691 48.011 16.026 13.763 11.419 21.342 27.978 21.342 46.628z" fill="#48568c"/><path d="m138.706 512h-138.706v-25.162c0-18.649 7.579-35.209 21.341-46.628 12.455-10.334 29.506-16.026 48.012-16.026 18.505 0 35.556 5.691 48.011 16.026 13.763 11.419 21.342 27.979 21.342 46.628z" fill="#10bb67"/><path d="m138.706 306.067c0-18.649-7.58-35.209-21.342-46.628-12.456-10.335-29.506-16.026-48.011-16.026v87.816h69.353z" fill="#2c3b73"/><path d="m138.706 512v-25.162c0-18.649-7.58-35.209-21.342-46.628-12.455-10.335-29.506-16.026-48.011-16.026v87.816z" fill="#02963e"/><path d="m69.353 273.414c-25.542 0-46.322-20.78-46.322-46.322s20.78-46.321 46.322-46.321 46.322 20.78 46.322 46.321c0 25.542-20.78 46.322-46.322 46.322z" fill="#f9c4b9"/><path d="m69.353 454.184c-25.542 0-46.322-20.78-46.322-46.322s20.78-46.321 46.322-46.321 46.322 20.78 46.322 46.321c0 25.542-20.78 46.322-46.322 46.322z" fill="#f9c4b9"/><path d="m115.675 227.092c0-25.542-20.78-46.321-46.322-46.321v92.643c25.542 0 46.322-20.78 46.322-46.322z" fill="#ffb19e"/><path d="m69.353 361.541v92.643c25.542 0 46.322-20.78 46.322-46.322 0-25.541-20.78-46.321-46.322-46.321z" fill="#ffb19e"/><path d="m138.706 150.459h-138.706v-25.162c0-18.649 7.579-35.209 21.341-46.628 12.455-10.334 29.506-16.026 48.012-16.026 18.505 0 35.556 5.691 48.011 16.026 13.763 11.419 21.342 27.979 21.342 46.628z" fill="#fd4e26"/><path d="m138.706 125.297c0-18.649-7.58-35.209-21.342-46.628-12.455-10.335-29.506-16.026-48.011-16.026v87.816h69.353z" fill="#d8270f"/><path d="m69.353 92.643c-25.542 0-46.322-20.78-46.322-46.321s20.78-46.322 46.322-46.322 46.322 20.78 46.322 46.321-20.78 46.322-46.322 46.322z" fill="#f9c4b9"/><path d="m69.353 0v92.643c25.542 0 46.322-20.78 46.322-46.321s-20.78-46.322-46.322-46.322z" fill="#ffb19e"/></g></svg>