<svg id="Capa_1" enable-background="new 0 0 512 512" height="512" viewBox="0 0 512 512" width="512" xmlns="http://www.w3.org/2000/svg"><g><g><path d="m94.09 430.655c-27.606 0-55.452-3.274-83.491-11.88l-10.599-3.253v-316.922l19.401 5.955c66.468 20.4 132.032 7.555 201.445-6.045 69.992-13.711 142.364-27.889 216.022-5.284l10.599 3.253v316.922l-19.401-5.955c-66.468-20.401-132.035-7.556-201.451 6.044-43.346 8.493-87.613 17.165-132.525 17.165z" fill="#f5fbff"/></g><path d="m436.868 93.226c-72.634-22.291-144.017-8.815-213.101 4.712v316.11c.949-.186 1.899-.371 2.847-.557 69.416-13.601 134.983-26.445 201.451-6.044l19.401 5.955v-316.923z" fill="#cae1f9"/><path d="m102.273 259.58c-28.732.75-54.401-2.485-78.471-9.872l-23.802-7.305v31.003l23.802 7.305c1.643.504 3.295.985 4.954 1.451 23.161 5.661 47.608 8.097 74.293 7.408z" fill="#50c5ff"/><path d="m441.27 238.379c-29.971-9.198-61.619-13.263-96.757-12.434l.709 29.991c29.433-.697 56.027 2.364 81.068 9.327 5.042 1.239 10.036 2.603 14.979 4.12l6.197 1.902v-31.004z" fill="#488aff"/><path d="m507.398 512h-89.916v-477.44h89.916z" fill="#48568c"/><path d="m507.398 512h-44.958v-477.44h44.958z" fill="#2c3b73"/><g><path d="m462.44 99.119c-27.327 0-49.56-22.232-49.56-49.559s22.232-49.56 49.56-49.56 49.56 22.232 49.56 49.56c0 27.327-22.232 49.559-49.56 49.559z" fill="#ffb725"/></g><path d="m462.44 0v99.119c27.327 0 49.56-22.232 49.56-49.559 0-27.328-22.232-49.56-49.56-49.56z" fill="#ff9000"/><path d="m138.508 238.918 42.629 41.554-10.065 58.677 52.696-27.703 52.692 27.702-10.064-58.677 42.629-41.553-58.91-8.559-26.348-53.387-26.348 53.387z" fill="#ffb725"/><path d="m266.397 280.471 42.629-41.553-58.911-8.559-26.347-53.385v134.472l52.693 27.702z" fill="#ff9000"/></g></svg>