<svg id="Capa_1" enable-background="new 0 0 512.014 512.014" height="512" viewBox="0 0 512.014 512.014" width="512" xmlns="http://www.w3.org/2000/svg"><g><path d="m330.959 512.005h-149.907l-.093-306.292 75.047-45.029 75.045 45.029z" fill="#50c5ff"/><path d="m149.998 512.005h-149.899l-.099-173.379 75.049-45.031 75.047 45.03z" fill="#fd4e26"/><path d="m511.908 512.005h-149.887l-.107-113.377 75.051-45.033 75.05 45.032z" fill="#10bb67"/><path d="m256.006 512.005h74.953l.092-306.294-75.045-45.028z" fill="#488aff"/><path d="m75.049 512.005h74.949l.098-173.38-75.047-45.03z" fill="#d8270f"/><path d="m512.014 398.627-75.05-45.032v158.41h74.944z" fill="#02963e"/><path d="m.011 191.332 38.251 37.286-9.03 52.651 47.286-24.859 47.282 24.858-9.03-52.651 38.251-37.285-52.864-7.682-23.642-47.902-23.642 47.904z" fill="#ffb725"/><path d="m153.022 191.332-52.864-7.682-23.639-47.897v120.657l47.282 24.858-9.03-52.651z" fill="#ff9000"/><path d="m359 191.332 38.251 37.286-9.03 52.651 47.286-24.859 47.282 24.858-9.03-52.651 38.251-37.285-52.864-7.682-23.642-47.902-23.642 47.904z" fill="#ffb725"/><path d="m512.011 191.332-52.863-7.682-23.64-47.897v120.657l47.282 24.858-9.03-52.651z" fill="#ff9000"/><g><path d="m179.506 55.593 38.251 37.286-9.03 52.651 47.286-24.859 47.282 24.858-9.03-52.651 38.251-37.285-52.864-7.682-23.641-47.902-23.642 47.904z" fill="#ffb725"/><path d="m332.517 55.593-52.864-7.681-23.639-47.898v120.657l47.281 24.858-9.03-52.651z" fill="#ff9000"/></g></g></svg>