<svg id="Capa_1" enable-background="new 0 0 512 512" height="512" viewBox="0 0 512 512" width="512" xmlns="http://www.w3.org/2000/svg"><g><path d="m177.403 441.359 83.543 19.686h1.743 171.758c24.813 0 45-20.187 45-45.092 0-8.911-2.614-17.217-7.1-24.214 10.788-8.237 17.767-21.24 17.767-35.878 0-8.847-2.576-17.098-7.003-24.064 10.899-8.229 17.958-21.302 17.958-36.028 0-8.852-2.579-17.108-7.011-24.076 10.889-8.23 17.943-21.297 17.943-36.016 0-24.813-20.187-45-45-45h-115.994l15.342-74.016c3.462-15.156.736-30.693-7.682-43.772-8.452-13.131-21.536-22.066-36.844-25.158l-38.725-7.822-22.308 68.542c-5.439 16.127-16.518 29.747-31.204 38.354l-54.516 31.956h-55.155v262.618z" fill="#f9c4b9"/><path d="m119.916 441.379 57.486-.02 83.543 19.686h1.743 171.758c24.813 0 45-20.187 45-45.092 0-8.911-2.614-17.217-7.1-24.214 10.788-8.237 17.767-21.24 17.767-35.878 0-8.847-2.576-17.098-7.003-24.064 7.197-5.435 12.704-12.99 15.625-21.73h-378.819z" fill="#ffb19e"/><path d="m149.917 472.09h-149.917v-324.045h149.917z" fill="#48568c"/><path d="m149.917 472.09h-149.917v-162.022h149.917z" fill="#2c3b73"/><path d="m59.958 382.192h30v29.969h-30z" fill="#488aff"/></g></svg>