<svg id="Capa_1" enable-background="new 0 0 512 512" height="512" viewBox="0 0 512 512" width="512" xmlns="http://www.w3.org/2000/svg"><g><path d="m334.597 70.641-83.543-19.686h-1.743-171.758c-24.813 0-45 20.187-45 45.092 0 8.911 2.614 17.217 7.1 24.214-10.788 8.237-17.767 21.24-17.767 35.878 0 8.847 2.576 17.098 7.003 24.064-10.899 8.229-17.958 21.302-17.958 36.028 0 8.852 2.58 17.108 7.011 24.076-10.889 8.229-17.942 21.296-17.942 36.015 0 24.813 20.187 45 45 45h115.993l-15.342 74.016c-3.462 15.156-.736 30.693 7.682 43.773 8.452 13.131 21.536 22.066 36.844 25.158l38.725 7.822 22.308-68.542c5.439-16.127 16.518-29.747 31.204-38.354l54.516-31.956h55.155v-262.618z" fill="#f9c4b9"/><path d="m13.265 201.932c-1.502 4.494-2.333 9.297-2.333 14.297 0 8.852 2.58 17.108 7.011 24.076-10.89 8.231-17.943 21.298-17.943 36.017 0 24.813 20.187 45 45 45h115.993l-15.342 74.016c-3.462 15.156-.736 30.693 7.682 43.773 8.452 13.131 21.536 22.066 36.844 25.158l38.725 7.822 22.308-68.542c5.439-16.127 16.518-29.747 31.204-38.354l54.516-31.956h55.155v-131.307z" fill="#ffb19e"/><path d="m512 363.955h-149.917v-324.045h149.917z" fill="#fd4e26"/><path d="m512 363.955h-149.917v-162.023h149.917z" fill="#d8270f"/><path d="m422.042 99.84h30v29.969h-30z" fill="#ffb725"/></g></svg>