<svg id="Capa_1" enable-background="new 0 0 512 512" height="512" viewBox="0 0 512 512" width="512" xmlns="http://www.w3.org/2000/svg"><g><path d="m366.169 236.167h-220.7v-27.676c0-29.289 11.843-55.247 33.348-73.091 19.824-16.449 47.17-25.508 77.001-25.508 29.83 0 57.176 9.059 77.001 25.507 21.507 17.844 33.35 43.802 33.35 73.091z" fill="#fd4e26"/><path d="m366.169 208.491c0-29.289-11.844-55.247-33.35-73.091-19.805-16.433-47.118-25.488-76.914-25.506v126.273h110.265v-27.676z" fill="#d8270f"/><path d="m255.818 139.893c-38.569 0-69.947-31.378-69.947-69.946.001-38.569 31.379-69.947 69.947-69.947 38.569 0 69.947 31.378 69.947 69.946 0 38.569-31.378 69.947-69.947 69.947z" fill="#f9c4b9"/><path d="m325.765 69.946c0-38.54-31.332-69.897-69.861-69.944v139.888c38.529-.046 69.861-31.404 69.861-69.944z" fill="#ffb19e"/><path d="m78.155 153.639h30v62.504h-30z" fill="#48568c"/><path d="m403.674 153.639h30v62.535h-30z" fill="#2c3b73"/><path d="m240.915 170.306h30v45.848h-30z" fill="#48568c"/><path d="m255.915 170.306h15v45.848h-15z" fill="#2c3b73"/><path d="m255.915 183.639c-22.174 0-40.214-18.04-40.214-40.214v-14.572c0-22.174 18.04-40.213 40.214-40.213s40.214 18.04 40.214 40.213v14.572c0 22.174-18.04 40.214-40.214 40.214z" fill="#f5fbff"/><path d="m255.915 88.639v95c22.174 0 40.214-18.04 40.214-40.214v-14.572c0-22.174-18.04-40.214-40.214-40.214z" fill="#cae1f9"/><g><path d="m104.208 183.639c-10.785 0-21.57-4.105-29.78-12.315-7.954-7.954-12.335-18.529-12.335-29.779s4.381-21.825 12.335-29.779l10.791-10.791c7.954-7.954 18.531-12.336 29.779-12.336h.001c11.249 0 21.825 4.381 29.779 12.336 16.42 16.42 16.42 43.138 0 59.558l-10.791 10.791c-8.209 8.21-18.994 12.315-29.779 12.315z" fill="#f5fbff"/></g><g><path d="m407.792 183.639c-10.785 0-21.57-4.105-29.78-12.315l-10.791-10.791c-16.42-16.42-16.42-43.138 0-59.558 7.954-7.955 18.53-12.336 29.779-12.336 11.25 0 21.825 4.381 29.78 12.336l10.791 10.791c7.954 7.954 12.335 18.529 12.335 29.779 0 11.249-4.381 21.825-12.335 29.779-8.21 8.21-18.995 12.315-29.779 12.315z" fill="#cae1f9"/></g><path d="m111.435 266.82 23.48 245.18h59.32l61.68-10 61.3 10h59.5l23.49-245.18z" fill="#48568c"/><path d="m400.205 266.82-23.49 245.18h-59.31l-61.5-10v-235.18z" fill="#2c3b73"/><path d="m177.455 336.82 16.78 175.18h123.17l16.77-175.18z" fill="#ffb725"/><path d="m334.175 336.82-16.77 175.18h-61.5v-175.18z" fill="#ff9000"/><path d="m403.916 296.817h-296.195c-24.813 0-45-20.187-45-45v-45.629h386.194v45.629c.001 24.813-20.186 45-44.999 45z" fill="#ffe375"/><path d="m255.904 206.188v90.629h148.012c24.814 0 45-20.187 45-45v-45.629z" fill="#ffb725"/></g></svg>