<svg id="Capa_1" enable-background="new 0 0 512 512" height="512" viewBox="0 0 512 512" width="512" xmlns="http://www.w3.org/2000/svg"><g><path d="m207.514 182.407h-159.028v-36.491c0-21.287 8.636-40.175 24.316-53.186 14.282-11.851 33.884-18.377 55.196-18.377s40.914 6.526 55.196 18.376c15.682 13.011 24.318 31.9 24.318 53.187v36.491z" fill="#fd4e26"/><path d="m207.514 145.915c0-21.287-8.637-40.175-24.318-53.187-14.283-11.849-33.885-18.375-55.196-18.375v108.054h79.514z" fill="#d8270f"/><path d="m456.64 452h-145.28l-22.886-238.964h191.051z" fill="#48568c"/><path d="m479.525 213.036h-95.525v238.964h72.64z" fill="#2c3b73"/><path d="m463.514 182.407h-159.028v-36.491c0-21.287 8.636-40.175 24.316-53.186 14.282-11.851 33.884-18.377 55.196-18.377 21.311 0 40.914 6.526 55.196 18.376 15.682 13.011 24.318 31.9 24.318 53.187v36.491z" fill="#10bb67"/><path d="m463.514 145.915c0-21.287-8.637-40.175-24.318-53.187-14.283-11.849-33.885-18.375-55.196-18.375v108.054h79.514z" fill="#02963e"/><path d="m200.64 452h-145.28l-22.885-238.964h191.051z" fill="#48568c"/><path d="m223.525 213.036h-95.525v238.964h72.64z" fill="#2c3b73"/><path d="m384 104.353c-28.771 0-52.177-23.406-52.177-52.177 0-28.77 23.406-52.176 52.177-52.176s52.177 23.406 52.177 52.176c0 28.771-23.406 52.177-52.177 52.177z" fill="#f9c4b9"/><path d="m384 0v104.353c28.771 0 52.177-23.406 52.177-52.177 0-28.77-23.406-52.176-52.177-52.176z" fill="#ffb19e"/><g fill="#f5fbff"><path d="m0 152.407v45.629c0 24.813 20.187 45 45 45h166c24.814 0 45-20.187 45-45 0 24.813 20.186 45 45 45h166c24.814 0 45-20.187 45-45v-45.629z"/><path d="m211 243.036h-166c-24.813 0-45-20.187-45-45v-45.629h256v45.629c0 24.813-20.186 45-45 45z"/><path d="m467 243.036h-166c-24.814 0-45-20.187-45-45v-45.629h256v45.629c0 24.813-20.186 45-45 45z"/><path d="m369 273.333h30v119h-30z"/></g><path d="m384 273.333h15v119h-15z" fill="#cae1f9"/><path d="m128 152.407v90.629h83c24.814 0 45-20.187 45-45v-45.629z" fill="#cae1f9"/><path d="m128 104.353c-28.771 0-52.177-23.406-52.177-52.177 0-28.77 23.406-52.176 52.177-52.176s52.177 23.406 52.177 52.176c0 28.771-23.407 52.177-52.177 52.177z" fill="#f9c4b9"/><path d="m128 0v104.353c28.77 0 52.177-23.406 52.177-52.177 0-28.77-23.407-52.176-52.177-52.176z" fill="#ffb19e"/><path d="m113 273.333h30v119h-30z" fill="#f5fbff"/><path d="m128 273.333h15v119h-15z" fill="#cae1f9"/><path d="m384 152.407v90.629h83c24.814 0 45-20.187 45-45v-45.629z" fill="#cae1f9"/><g><path d="m512 512h-512v-90h512z" fill="#50c5ff"/></g><path d="m256 422h256v90h-256z" fill="#488aff"/></g></svg>