<svg id="Capa_1" enable-background="new 0 0 512 512" height="512" viewBox="0 0 512 512" width="512" xmlns="http://www.w3.org/2000/svg"><g><path d="m241.042 512h-211.501v-73.684c0-28.096 11.365-52.999 32.001-70.122 18.997-15.763 45.188-24.444 73.748-24.444s54.75 8.681 73.748 24.444c20.638 17.123 32.004 42.026 32.004 70.122z" fill="#48568c"/><path d="m241.042 438.316c0-28.095-11.366-52.999-32.004-70.122-18.998-15.762-45.188-24.444-73.747-24.444v168.25h105.751z" fill="#2c3b73"/><path d="m135.291 373.751c-37.107 0-67.296-30.189-67.296-67.296s30.188-67.296 67.296-67.296 67.296 30.189 67.296 67.296-30.189 67.296-67.296 67.296z" fill="#f9c4b9"/><path d="m202.587 306.455c0-37.107-30.188-67.296-67.295-67.296v134.592c37.107 0 67.295-30.189 67.295-67.296z" fill="#ffb19e"/><path d="m135.291 202.309-45.421-52.06h-89.87v-150.249h241.042v150.249h-60.329z" fill="#ffb725"/><path d="m135.291 0v202.309l45.422-52.06h60.329v-150.249z" fill="#ff9000"/><path d="m60 60.125h121.042v30h-121.042z" fill="#f5fbff"/><path d="m135.291 60.125h45.751v30h-45.751z" fill="#cae1f9"/><path d="m482.459 512h-211.501v-73.684c0-28.096 11.365-52.999 32.001-70.122 18.997-15.763 45.188-24.444 73.748-24.444s54.75 8.681 73.748 24.444c20.638 17.123 32.004 42.026 32.004 70.122z" fill="#fd4e26"/><path d="m482.459 438.316c0-28.095-11.366-52.999-32.004-70.122-18.998-15.762-45.188-24.444-73.747-24.444v168.25h105.751z" fill="#d8270f"/><path d="m376.708 373.751c-37.107 0-67.296-30.189-67.296-67.296s30.188-67.296 67.296-67.296 67.296 30.189 67.296 67.296-30.189 67.296-67.296 67.296z" fill="#f9c4b9"/><path d="m444.004 306.455c0-37.107-30.188-67.296-67.295-67.296v134.592c37.107 0 67.295-30.189 67.295-67.296z" fill="#ffb19e"/><path d="m331.287 150.249h-60.329v-150.249h241.042v150.249h-89.87l-45.421 52.059z" fill="#ffb725"/><path d="m376.709 0v202.309l45.421-52.06h89.87v-150.249z" fill="#ff9000"/><path d="m330.958 60.125h121.042v30h-121.042z" fill="#f5fbff"/><path d="m376.709 60.125h75.291v30h-75.291z" fill="#cae1f9"/></g></svg>