<svg id="Capa_1" enable-background="new 0 0 512 512" height="512" viewBox="0 0 512 512" width="512" xmlns="http://www.w3.org/2000/svg"><g><path d="m367.844 512h-223.859l-32.452-338.846h288.763z" fill="#48568c"/><path d="m400.296 173.154h-144.381v338.846h111.929z" fill="#2c3b73"/><path d="m313.316 462h-114.802l-20.96-218.846h156.722z" fill="#ffb725"/><path d="m334.276 243.154h-78.361v218.846h57.401z" fill="#ff9000"/><path d="m78.155 65h30v62.504h-30z" fill="#48568c"/><path d="m403.674 65h30v62.535h-30z" fill="#2c3b73"/><path d="m240.915 81.667h30v45.848h-30z" fill="#48568c"/><path d="m255.915 81.667h15v45.848h-15z" fill="#2c3b73"/><path d="m255.915 95c-22.174 0-40.214-18.04-40.214-40.214v-14.573c0-22.173 18.04-40.213 40.214-40.213s40.214 18.04 40.214 40.213v14.572c0 22.175-18.04 40.215-40.214 40.215z" fill="#f5fbff"/><path d="m255.915 0v95c22.174 0 40.214-18.04 40.214-40.214v-14.573c0-22.173-18.04-40.213-40.214-40.213z" fill="#cae1f9"/><g><path d="m104.208 95c-10.785 0-21.57-4.105-29.78-12.315-7.954-7.954-12.335-18.529-12.335-29.779s4.381-21.825 12.335-29.779l10.792-10.791c7.954-7.955 18.53-12.336 29.779-12.336h.001c11.249 0 21.825 4.381 29.779 12.336 16.42 16.42 16.42 43.138 0 59.558l-10.791 10.791c-8.21 8.21-18.995 12.315-29.78 12.315z" fill="#f5fbff"/></g><g><path d="m407.792 95c-10.785 0-21.57-4.105-29.78-12.315l-10.791-10.791c-16.42-16.42-16.42-43.138 0-59.558 7.955-7.955 18.531-12.336 29.779-12.336 11.25 0 21.825 4.381 29.78 12.336l10.791 10.791c7.954 7.954 12.335 18.529 12.335 29.779 0 11.249-4.381 21.825-12.335 29.779-8.21 8.21-18.995 12.315-29.779 12.315z" fill="#cae1f9"/></g><path d="m404.012 203.154h-296.194c-24.813 0-45-20.186-45-45v-45.63h386.194v45.63c0 24.814-20.187 45-45 45z" fill="#ffe375"/><path d="m255.915 112.524v90.63h148.097c24.813 0 45-20.186 45-45v-45.63z" fill="#ffb725"/></g></svg>