<svg id="Capa_1" enable-background="new 0 0 512.165 512.165" height="512" viewBox="0 0 512.165 512.165" width="512" xmlns="http://www.w3.org/2000/svg"><g><path d="m76.665 194.215h30v97.643h-30z" fill="#48568c"/><path d="m91.665 194.215h15v97.643h-15z" fill="#2c3b73"/><path d="m183.329 209.215h-183.329v-132.466h183.329z" fill="#cae1f9"/><path d="m183.329 209.215h-91.664v-132.466h91.665v132.466z" fill="#9fc6e2"/><path d="m405.471 194.215h30v97.643h-30z" fill="#48568c"/><path d="m420.471 194.215h15v97.643h-15z" fill="#2c3b73"/><path d="m512.165 209.215h-183.33v-132.466h183.329v132.466z" fill="#cae1f9"/><path d="m512.165 209.215h-91.693v-132.466h91.693z" fill="#9fc6e2"/><path d="m241.165 134.998h30v96.72h-30z" fill="#48568c"/><path d="m256.165 134.998h15v96.72h-15z" fill="#2c3b73"/><g><path d="m398.908 149.998h-285.487v-149.916h285.487z" fill="#f5fbff"/></g><g><path d="m398.908 149.998h-142.743v-149.916h142.744v149.916z" fill="#cae1f9"/></g><path d="m183.551 512.082h-183.386v-64.594c0-24.447 9.903-46.128 27.884-61.048 16.471-13.666 39.131-21.192 63.808-21.192 24.676 0 47.337 7.526 63.808 21.192 17.983 14.92 27.886 36.601 27.886 61.048z" fill="#fd4e26"/><path d="m183.551 447.489c0-24.447-9.903-46.128-27.886-61.048-16.471-13.666-39.132-21.192-63.808-21.192-.064 0-.128.004-.192.004v146.83h91.887v-64.594z" fill="#d8270f"/><path d="m512.165 512.082h-183.387v-64.594c0-24.447 9.903-46.128 27.884-61.048 16.471-13.666 39.131-21.192 63.808-21.192 24.676 0 47.337 7.526 63.808 21.192 17.983 14.92 27.886 36.601 27.886 61.048v64.594z" fill="#10bb67"/><path d="m512.165 447.489c0-24.447-9.903-46.128-27.886-61.048-16.471-13.666-39.131-21.192-63.807-21.192v146.834h91.693z" fill="#02963e"/><path d="m91.857 395.248c-32.641 0-59.195-26.555-59.195-59.195s26.555-59.195 59.195-59.195c32.641 0 59.196 26.555 59.196 59.195s-26.555 59.195-59.196 59.195z" fill="#ffb19e"/><path d="m91.857 276.858c-.065 0-.128.005-.193.005v118.381c.065 0 .128.005.193.005 32.641 0 59.196-26.555 59.196-59.195s-26.555-59.196-59.196-59.196z" fill="#e59788"/><g><path d="m401.472 512.082h-290.615v-15.935c0-38.918 15.072-71.995 43.587-95.654 26.107-21.663 62.231-33.593 101.719-33.593 39.486 0 75.611 11.93 101.719 33.592 28.517 23.661 43.59 56.738 43.59 95.655z" fill="#48568c"/></g><path d="m401.472 496.147c0-38.917-15.073-71.994-43.59-95.655-26.108-21.662-62.232-33.592-101.717-33.592v145.183h145.308v-15.936z" fill="#2c3b73"/><g><path d="m256.164 396.9c-49.676 0-90.091-40.415-90.091-90.091s40.414-90.091 90.091-90.091 90.092 40.415 90.092 90.091-40.415 90.091-90.092 90.091z" fill="#f9c4b9"/></g><path d="m346.256 306.809c0-49.676-40.415-90.091-90.091-90.091v180.182c49.676-.001 90.091-40.416 90.091-90.091z" fill="#ffb19e"/><path d="m420.471 395.248c-32.64 0-59.195-26.555-59.195-59.195s26.555-59.195 59.195-59.195c32.641 0 59.196 26.555 59.196 59.195s-26.556 59.195-59.196 59.195z" fill="#ffb19e"/><path d="m479.667 336.053c0-32.64-26.555-59.195-59.195-59.195v118.391c32.64-.001 59.195-26.556 59.195-59.196z" fill="#e59788"/></g></svg>