<svg id="Capa_1" enable-background="new 0 0 512 512" height="512" viewBox="0 0 512 512" width="512" xmlns="http://www.w3.org/2000/svg"><g><path d="m512 512h-190.69v-333.959c0-25.395 10.283-47.912 28.954-63.404 17.127-14.212 40.705-22.038 66.39-22.038s49.262 7.826 66.39 22.037c18.673 15.493 28.956 38.01 28.956 63.405z" fill="#48568c"/><path d="m512 178.041c0-25.395-10.283-47.912-28.956-63.405-17.128-14.211-40.704-22.037-66.389-22.037v419.401h95.345z" fill="#2c3b73"/><path d="m416.655 122.599c-33.801 0-61.299-27.499-61.299-61.299 0-33.801 27.499-61.3 61.299-61.3 33.801 0 61.3 27.499 61.3 61.3 0 33.8-27.499 61.299-61.3 61.299z" fill="#ffb19e"/><path d="m477.955 61.3c0-33.801-27.499-61.3-61.3-61.3v122.599c33.801-.001 61.3-27.5 61.3-61.299z" fill="#e59788"/><path d="m351.345 512h-190.69v-333.959c0-25.395 10.283-47.912 28.954-63.404 17.127-14.212 40.705-22.038 66.39-22.038s49.262 7.826 66.39 22.037c18.673 15.493 28.956 38.011 28.956 63.405z" fill="#48568c"/><path d="m351.345 178.041c0-25.395-10.283-47.912-28.956-63.405-17.128-14.211-40.705-22.037-66.389-22.037v419.401h95.345z" fill="#2c3b73"/><path d="m255.999 122.599c-33.801 0-61.299-27.499-61.299-61.299 0-33.801 27.498-61.3 61.299-61.3s61.3 27.499 61.3 61.3c.001 33.8-27.498 61.299-61.3 61.299z" fill="#ffb19e"/><path d="m317.3 61.3c0-33.801-27.499-61.3-61.3-61.3v122.599c33.801-.001 61.3-27.5 61.3-61.299z" fill="#e59788"/><path d="m190.689 512h-190.689v-333.959c0-25.395 10.283-47.912 28.954-63.404 17.127-14.212 40.705-22.038 66.39-22.038s49.262 7.826 66.39 22.037c18.673 15.493 28.956 38.011 28.956 63.405v333.959z" fill="#48568c"/><path d="m190.689 178.041c0-25.395-10.283-47.912-28.956-63.405-17.128-14.211-40.704-22.037-66.389-22.037v419.401h95.345z" fill="#2c3b73"/><path d="m95.344 122.599c-33.801 0-61.299-27.499-61.299-61.299 0-33.801 27.498-61.3 61.299-61.3s61.3 27.499 61.3 61.3c0 33.8-27.499 61.299-61.3 61.299z" fill="#ffb19e"/><path d="m156.644 61.3c0-33.801-27.499-61.3-61.3-61.3v122.599c33.802-.001 61.3-27.5 61.3-61.299z" fill="#e59788"/><g><path d="m431.69 512h-190.69v-228.988c0-25.395 10.283-47.912 28.954-63.404 17.127-14.212 40.705-22.038 66.39-22.038s49.263 7.826 66.391 22.037c18.672 15.493 28.956 38.011 28.956 63.405v228.988z" fill="#48568c"/></g><path d="m431.69 283.012c0-25.395-10.283-47.912-28.956-63.405-17.128-14.211-40.705-22.037-66.389-22.037v314.43h95.345z" fill="#2c3b73"/><g><path d="m336.344 227.569c-33.801 0-61.299-27.499-61.299-61.3s27.499-61.299 61.299-61.299c33.801 0 61.3 27.498 61.3 61.299.001 33.801-27.498 61.3-61.3 61.3z" fill="#ffb19e"/></g><path d="m397.645 166.27c0-33.801-27.499-61.299-61.3-61.299v122.599c33.801-.001 61.3-27.5 61.3-61.3z" fill="#e59788"/><g><path d="m271 512h-190.69v-228.988c0-25.395 10.283-47.912 28.954-63.404 17.127-14.212 40.705-22.038 66.39-22.038s49.263 7.826 66.391 22.037c18.672 15.493 28.955 38.01 28.955 63.405z" fill="#48568c"/></g><path d="m271 283.012c0-25.395-10.283-47.912-28.956-63.405-17.128-14.211-40.705-22.037-66.389-22.037v314.43h95.345z" fill="#2c3b73"/><g><path d="m175.655 227.569c-33.801 0-61.299-27.499-61.299-61.3s27.499-61.299 61.299-61.299c33.801 0 61.3 27.498 61.3 61.299s-27.499 61.3-61.3 61.3z" fill="#ffb19e"/></g><path d="m236.955 166.27c0-33.801-27.499-61.299-61.3-61.299v122.599c33.801-.001 61.3-27.5 61.3-61.3z" fill="#e59788"/><g><path d="m512 512h-190.69v-124.018c0-25.395 10.283-47.913 28.954-63.405 17.126-14.211 40.705-22.037 66.39-22.037s49.263 7.826 66.39 22.037c18.673 15.492 28.956 38.01 28.956 63.405z" fill="#50c5ff"/></g><path d="m512 387.982c0-25.395-10.283-47.913-28.956-63.405-17.127-14.211-40.704-22.037-66.389-22.037v209.46h95.345z" fill="#488aff"/><g><path d="m416.655 332.54c-33.801 0-61.299-27.499-61.299-61.3s27.499-61.3 61.299-61.3c33.801 0 61.3 27.499 61.3 61.3s-27.499 61.3-61.3 61.3z" fill="#f9c4b9"/></g><path d="m477.955 271.24c0-33.801-27.499-61.299-61.3-61.3v122.6c33.801 0 61.3-27.499 61.3-61.3z" fill="#ffb19e"/><g><path d="m351.345 512h-190.69v-124.018c0-25.395 10.283-47.913 28.954-63.405 17.127-14.211 40.705-22.037 66.39-22.037s49.263 7.826 66.39 22.037c18.673 15.492 28.956 38.01 28.956 63.405z" fill="#50c5ff"/></g><path d="m351.345 387.982c0-25.395-10.283-47.913-28.956-63.405-17.127-14.211-40.705-22.037-66.389-22.037v209.46h95.345z" fill="#488aff"/><g><path d="m255.999 332.54c-33.801 0-61.299-27.499-61.299-61.3s27.498-61.3 61.299-61.3 61.3 27.499 61.3 61.3c.001 33.801-27.498 61.3-61.3 61.3z" fill="#f9c4b9"/></g><path d="m317.3 271.24c0-33.801-27.499-61.299-61.3-61.3v122.6c33.801 0 61.3-27.499 61.3-61.3z" fill="#ffb19e"/><g><path d="m190.689 512h-190.689v-124.018c0-25.395 10.283-47.913 28.954-63.405 17.127-14.211 40.705-22.037 66.39-22.037s49.263 7.826 66.39 22.037c18.673 15.492 28.956 38.01 28.956 63.405v124.018z" fill="#50c5ff"/></g><path d="m190.689 387.982c0-25.395-10.283-47.913-28.956-63.405-17.127-14.211-40.704-22.037-66.389-22.037v209.46h95.345z" fill="#488aff"/><g><path d="m95.344 332.54c-33.801 0-61.299-27.499-61.299-61.3s27.499-61.3 61.299-61.3c33.801 0 61.3 27.499 61.3 61.3s-27.499 61.3-61.3 61.3z" fill="#f9c4b9"/></g><path d="m156.644 271.24c0-33.801-27.499-61.299-61.3-61.3v122.6c33.802 0 61.3-27.499 61.3-61.3z" fill="#ffb19e"/><g><path d="m431.69 512h-190.69v-19.048c0-25.395 10.282-47.912 28.953-63.404 17.127-14.212 40.705-22.038 66.391-22.038 25.684 0 49.263 7.826 66.391 22.037 18.672 15.493 28.955 38.011 28.955 63.405z" fill="#f5fbff"/></g><g><path d="m271 512h-190.69v-19.048c0-25.395 10.283-47.912 28.954-63.404 17.127-14.212 40.705-22.038 66.39-22.038s49.263 7.826 66.391 22.037c18.672 15.493 28.955 38.011 28.955 63.405z" fill="#f5fbff"/></g><path d="m271 492.952c0-25.395-10.283-47.912-28.956-63.405-17.128-14.211-40.705-22.037-66.389-22.037v104.49h95.345z" fill="#cae1f9"/><g><path d="m175.655 437.51c-33.801 0-61.299-27.498-61.299-61.299s27.499-61.3 61.299-61.3c33.801 0 61.3 27.499 61.3 61.3s-27.499 61.299-61.3 61.299z" fill="#f9c4b9"/></g><path d="m236.955 376.211c0-33.801-27.499-61.299-61.3-61.3v122.599c33.801-.001 61.3-27.498 61.3-61.299z" fill="#ffb19e"/><path d="m431.69 492.952c0-25.395-10.283-47.912-28.955-63.405-17.128-14.211-40.705-22.037-66.39-22.037v104.49h95.345z" fill="#cae1f9"/><g><path d="m336.345 437.51c-33.801 0-61.3-27.498-61.3-61.299s27.499-61.3 61.3-61.3 61.3 27.499 61.3 61.3-27.499 61.299-61.3 61.299z" fill="#f9c4b9"/></g><path d="m336.345 314.911v122.599c33.801 0 61.3-27.498 61.3-61.299s-27.499-61.3-61.3-61.3z" fill="#ffb19e"/></g></svg>