<svg id="Capa_1" enable-background="new 0 0 512 512" height="512" viewBox="0 0 512 512" width="512" xmlns="http://www.w3.org/2000/svg"><g><path d="m336.14 451.37h-160.28l-22.886-238.964h206.051z" fill="#f5fbff"/><path d="m359.025 212.406h-103.025v238.964h80.14z" fill="#cae1f9"/><path d="m342.521 421.37h-173.041c-24.814 0-45 20.187-45 45v45.63h263.041v-45.63c0-24.813-20.187-45-45-45z" fill="#50c5ff"/><path d="m387.521 466.37c0-24.813-20.186-45-45-45h-86.521v90.63h131.521z" fill="#488aff"/><g><g><path d="m452.064 367.82-24.126-18.495c-.662-.507-1.317-1.02-1.974-1.531-5.632-4.399-8.735-6.823-16.375-6.823-7.635 0-10.735 2.423-16.365 6.82-7.119 5.563-16.869 13.18-34.834 13.18s-27.715-7.617-34.834-13.18c-5.63-4.397-8.73-6.82-16.365-6.82s-10.735 2.423-16.365 6.82c-7.119 5.563-16.869 13.18-34.833 13.18s-27.714-7.618-34.834-13.18c-5.628-4.397-8.729-6.82-16.363-6.82-7.635 0-10.735 2.423-16.365 6.82-7.119 5.563-16.869 13.18-34.834 13.18-17.964 0-27.714-7.617-34.833-13.18-5.63-4.397-8.73-6.82-16.365-6.82-7.638 0-10.74 2.423-16.371 6.822-.651.509-1.304 1.018-1.962 1.523l-24.128 18.502v-367.818h78.659l15 16.01 15-16.01h72.403l15 16.01 15-16.01h72.5l15 16.01 15-16.01h78.564z" fill="#fd4e26"/></g></g><path d="m373.5 0-15 16.01-15-16.01h-72.5l-15 16.01v344.96c17.959-.002 27.707-7.618 34.825-13.18 5.63-4.397 8.73-6.82 16.365-6.82s10.735 2.423 16.365 6.82c7.119 5.563 16.869 13.18 34.834 13.18s27.715-7.617 34.834-13.18c5.63-4.397 8.73-6.82 16.365-6.82 7.64 0 10.743 2.424 16.375 6.823.656.512 1.311 1.024 1.974 1.531l24.126 18.495v-367.819z" fill="#d8270f"/><g><path d="m89.916 512h-89.916v-512h89.916z" fill="#48568c"/></g><g><path d="m89.916 512h-44.958v-512h44.958z" fill="#2c3b73"/></g><g><path d="m512 512h-89.916v-512h89.916z" fill="#48568c"/></g><g><path d="m512 512h-44.958v-512h44.958z" fill="#2c3b73"/></g><path d="m138.596 0h30v191.544h-30z" fill="#48568c"/><path d="m241 0h30v251.481h-30z" fill="#48568c"/><path d="m256 0h15v251.481h-15z" fill="#2c3b73"/><path d="m343.5 0h30v191.544h-30z" fill="#2c3b73"/><path d="m138.596 221.513h30v29.969h-30z" fill="#48568c"/><path d="m343.5 221.513h30v29.969h-30z" fill="#2c3b73"/></g></svg>