<svg id="Capa_1" enable-background="new 0 0 512 512" height="512" viewBox="0 0 512 512" width="512" xmlns="http://www.w3.org/2000/svg"><g><path d="m389.021 270.2h-266.042v-15.705c0-35.683 13.828-66.018 39.988-87.724 23.898-19.83 56.938-30.751 93.03-30.751 36.093 0 69.132 10.921 93.031 30.75 26.162 21.707 39.991 52.042 39.991 87.725v15.705z" fill="#50c5ff"/><path d="m389.021 254.495c0-35.683-13.829-66.018-39.991-87.725-23.899-19.829-56.937-30.75-93.029-30.75v134.18h133.021v-15.705z" fill="#488aff"/><path d="m451.976 452h-391.952v-211.8h391.951v211.8z" fill="#f5fbff"/><path d="m255.999 166.02c-45.771 0-83.01-37.238-83.01-83.011 0-45.772 37.238-83.01 83.01-83.01 45.773 0 83.012 37.238 83.012 83.01 0 45.773-37.239 83.011-83.012 83.011z" fill="#f9c4b9"/><path d="m339.011 83.01c0-45.771-37.239-83.009-83.011-83.01v166.02c45.772 0 83.011-37.238 83.011-83.01z" fill="#ffb19e"/><path d="m451.976 452h-195.976v-211.8h195.976z" fill="#cae1f9"/><path d="m244.241 387-46.778-46.778 21.213-21.213 25.565 25.565 49.083-49.082 21.213 21.213z" fill="#fd4e26"/><path d="m293.324 295.492-37.324 37.324v42.425l58.537-58.536z" fill="#d8270f"/><g><path d="m511.984 512h-511.968v-90h511.969v90z" fill="#48568c"/></g><path d="m256 422h255.984v90h-255.984z" fill="#2c3b73"/></g></svg>