<svg id="Capa_1" enable-background="new 0 0 512 512" height="512" viewBox="0 0 512 512" width="512" xmlns="http://www.w3.org/2000/svg"><g><path d="m512 467.792h-512v-226.792h512z" fill="#48568c"/><path d="m512 467.792h-256v-226.792h256z" fill="#2c3b73"/><path d="m371.409 89.208c0-24.813-20.187-45-45-45h-140.625c-24.813 0-45 20.187-45 45v50.598h30v-50.598c0-8.271 6.729-15 15-15h140.625c8.271 0 15 6.729 15 15v50.598h30z" fill="#48568c"/><path d="m326.409 44.208h-70.409v30h70.409c8.271 0 15 6.729 15 15v50.598h30v-50.598c0-24.813-20.187-45-45-45z" fill="#2c3b73"/><path d="m512 271h-512v-161.194h512z" fill="#50c5ff"/><path d="m512 271h-256v-161.194h256z" fill="#488aff"/><g><path d="m114.985 340.064-54.889-41.644v-109.653h110.688v109.736z" fill="#f5fbff"/></g><g><path d="m396.298 340.064-54.889-41.644v-109.653h110.688v109.736z" fill="#cae1f9"/></g></g></svg>