<svg id="Capa_1" enable-background="new 0 0 512 512" height="512" viewBox="0 0 512 512" width="512" xmlns="http://www.w3.org/2000/svg"><g><g><path d="m467 512c-24.5 0-211.333-16.01-211.333-16.01v-434.89h256.333v405.9c0 24.813-20.5 45-45 45z" fill="#488aff"/></g><path d="m422.167 467.042v-467.042h-422.167v467c0 24.814 20.187 45 45 45h422.125c-24.79 0-44.958-20.168-44.958-44.958z" fill="#f5fbff"/><path d="m422.167 467.042v-467.042h-211.084v512h256.042c-24.79 0-44.958-20.168-44.958-44.958z" fill="#cae1f9"/><path d="m467.125 512h.042v-.001c-.014 0-.028.001-.042.001z"/><path d="m187.812 451.954h-138.706v-90.125h138.706z" fill="#fd4e26"/><path d="m373.065 211.56h-138.706v-25.162c0-18.65 7.58-35.209 21.342-46.628 12.456-10.335 29.507-16.026 48.012-16.026s35.556 5.691 48.011 16.026c13.762 11.419 21.341 27.979 21.341 46.628z" fill="#d8270f"/><path d="m303.712 153.743c-25.542 0-46.322-20.779-46.322-46.321s20.78-46.322 46.322-46.322 46.322 20.78 46.322 46.322-20.78 46.321-46.322 46.321z" fill="#ffb19e"/><path d="m234.359 241.579h138.706v30h-138.706z" fill="#2c3b73"/><g fill="#48568c"><path d="m118.459 61.205h69.353v30h-69.353z"/><path d="m49.106 121.329h138.706v30h-138.706z"/><path d="m49.106 181.453h138.706v30h-138.706z"/><path d="m49.106 241.577h138.706v30h-138.706z"/><path d="m49.106 301.701h138.706v30h-138.706z"/></g><path d="m234.359 301.704h138.706v30h-138.706z" fill="#2c3b73"/><path d="m234.359 361.829h138.706v30h-138.706z" fill="#2c3b73"/><path d="m234.359 421.954h138.706v30h-138.706z" fill="#2c3b73"/></g></svg>