<svg id="Capa_1" enable-background="new 0 0 512.166 512.166" height="512" viewBox="0 0 512.166 512.166" width="512" xmlns="http://www.w3.org/2000/svg"><g><path d="m374.288 472.906-118.204-16.01-118.204 16.01 29.872-90.897h176.665z" fill="#48568c"/><path d="m374.288 472.906-29.872-90.896h-88.333v74.886h.001z" fill="#2c3b73"/><path d="m512.166 412.01h-512.166v-90.896h512.166z" fill="#f5fbff"/><path d="m512.166 412.01h-256.083v-90.896h256.083z" fill="#cae1f9"/><path d="m512.166 351.113h-512.166v-311.853h512.166z" fill="#f5fbff"/><path d="m512.166 351.113h-256.083v-311.853h256.083z" fill="#cae1f9"/><path d="m424.91 351.113h-217.871v-46.371c0-28.923 11.696-54.556 32.934-72.178 19.57-16.238 46.561-25.181 76.001-25.181 29.439 0 56.43 8.942 76.001 25.181 21.238 17.622 32.935 43.256 32.935 72.178z" fill="#50c5ff"/><path d="m424.91 304.742c0-28.922-11.697-54.556-32.935-72.178-19.571-16.238-46.562-25.181-76.001-25.181-22.03 0-42.687 5.01-59.891 14.335v129.395h168.827z" fill="#488aff"/><path d="m315.975 237.384c-38.119 0-69.132-31.012-69.132-69.131s31.013-69.132 69.132-69.132 69.132 31.013 69.132 69.132c-.001 38.119-31.013 69.131-69.132 69.131z" fill="#f9c4b9"/><path d="m315.975 99.121c-25.575 0-47.934 13.971-59.892 34.671v68.922c11.957 20.7 34.317 34.67 59.892 34.67 38.119 0 69.132-31.012 69.132-69.131-.001-38.119-31.013-69.132-69.132-69.132z" fill="#ffb19e"/><g><path d="m0 39.26v311.854h512.166v-311.854zm482.166 281.853h-452.166v-251.853h452.166z" fill="#48568c"/></g><path d="m512.166 39.26h-256.083v30h226.083v251.853h-226.083v30h256.083z" fill="#2c3b73"/><path d="m422.04 99.26h30.086v30h-30.086z" fill="#ff9000"/><path d="m196.458 235.718h-136.458v-136.458h136.458z" fill="#fd4e26"/><path d="m102.257 442.906h307.653v30h-307.653z" fill="#f5fbff"/><path d="m256.083 442.906h153.827v30h-153.827z" fill="#cae1f9"/></g></svg>