<svg id="Capa_1" enable-background="new 0 0 512 512" height="512" viewBox="0 0 512 512" width="512" xmlns="http://www.w3.org/2000/svg"><g><path d="m146.556 119.237h168.496v29.999h-168.496z" fill="#50c5ff" transform="matrix(.674 -.739 .739 .674 -23.951 214.171)"/><path d="m174.034 196.484 11.043 10.083 113.608-124.434-11.071-10.109z" fill="#488aff"/><g><path d="m309.722 95.597c-26.355 0-47.798-21.442-47.798-47.799 0-26.356 21.442-47.798 47.798-47.798s47.799 21.442 47.799 47.798-21.443 47.799-47.799 47.799z" fill="#f5fbff"/></g><path d="m341.926 12.51-64.407 70.577c8.502 7.766 19.808 12.51 32.203 12.51 26.356 0 47.799-21.442 47.799-47.799 0-13.961-6.019-26.541-15.595-35.288z" fill="#cae1f9"/><path d="m451.8 160.857c0-24.814-20.186-45-45-45h-301.986c-24.813 0-45 20.187-45 45v50.597h30v-50.597c0-8.271 6.729-15 15-15h301.986c8.271 0 15 6.729 15 15v50.597h30z" fill="#48568c"/><path d="m406.8 115.857h-151.019v30h151.019c8.271 0 15 6.729 15 15v50.597h30v-50.597c0-24.813-20.187-45-45-45z" fill="#2c3b73"/><path d="m512 512h-512v-330.133h512z" fill="#ffb725"/><path d="m512 512h-256.219v-330.133h256.219z" fill="#ff9000"/><path d="m93.29 335.439c-22.25 22.25-22.249 58.454.002 80.705 22.25 22.25 58.453 22.25 80.703 0 22.251-22.251 22.252-58.455.002-80.705-22.252-22.251-58.456-22.251-80.707 0z" fill="#f5fbff"/><path d="m74.815 361.187h119.57v30h-119.57z" fill="#fd4e26" transform="matrix(.707 -.707 .707 .707 -226.58 205.358)"/><path d="m134.599 450.972c-41.236 0-74.784-33.548-74.784-74.784 0-41.237 33.548-74.786 74.784-74.786 41.237 0 74.786 33.549 74.786 74.786 0 41.236-33.549 74.784-74.786 74.784zm0-119.571c-24.694 0-44.784 20.091-44.784 44.786 0 24.694 20.09 44.784 44.784 44.784 24.695 0 44.786-20.09 44.786-44.784 0-24.695-20.091-44.786-44.786-44.786z" fill="#48568c"/><path d="m451.8 450.972h-210.091v-147.724h210.091z" fill="#fd4e26"/><path d="m451.8 450.972h-196.019v-147.724h196.019z" fill="#d8270f"/><path d="m59.813 227.351h391.938v30h-391.938z" fill="#f5fbff"/><path d="m255.781 227.351h195.969v30h-195.969z" fill="#cae1f9"/></g></svg>