<svg id="Capa_1" enable-background="new 0 0 512 512" height="512" viewBox="0 0 512 512" width="512" xmlns="http://www.w3.org/2000/svg"><g><path d="m512 489.038h-512v-292.531l256-196.507 256 195.154z" fill="#ffb725"/><path d="m512 195.154-256-195.154v489.038h256z" fill="#ff9000"/><path d="m452.089 512h-392.178v-512h392.177v512z" fill="#f5fbff"/><path d="m452.089 512h-196.089v-512h196.089z" fill="#cae1f9"/><path d="m121.044 241.578h269.911v30h-269.911z" fill="#48568c"/><path d="m256 241.578h134.955v30h-134.955z" fill="#2c3b73"/><path d="m121.044 301.703h269.911v30h-269.911z" fill="#48568c"/><path d="m256 301.703h134.955v30h-134.955z" fill="#2c3b73"/><g><path d="m512 489.038h-512v-293.626l201.066 124.145 54.934 54.922 54.979-54.632 201.021-124.435z" fill="#ffe375"/></g><path d="m512 195.412-201.021 124.435-54.979 54.632v114.559h256z" fill="#ffb725"/><path d="m512 512h-512v-24.313l201.065-168.13 54.935 38.912 54.982-38.623 201.018 169.191z" fill="#ffb725"/><path d="m512 489.037-201.018-169.191-54.982 38.623v153.531h256z" fill="#ff9000"/><path d="m325.353 211.463h-138.706v-25.162c0-18.649 7.58-35.209 21.342-46.628 12.456-10.335 29.507-16.026 48.012-16.026s35.556 5.691 48.011 16.026c13.762 11.419 21.341 27.979 21.341 46.628z" fill="#50c5ff"/><path d="m325.353 186.301c0-18.649-7.579-35.209-21.341-46.628-12.455-10.335-29.506-16.026-48.011-16.026h-.001v87.816h69.353z" fill="#488aff"/><path d="m256 153.646c-25.542 0-46.322-20.779-46.322-46.321s20.78-46.322 46.322-46.322 46.322 20.78 46.322 46.322-20.78 46.321-46.322 46.321z" fill="#f9c4b9"/><path d="m256 61.003v92.644c25.542 0 46.322-20.779 46.322-46.321s-20.78-46.323-46.322-46.323z" fill="#ffb19e"/></g></svg>