<svg id="Capa_1" enable-background="new 0 0 512 512" height="512" viewBox="0 0 512 512" width="512" xmlns="http://www.w3.org/2000/svg"><g><path d="m450 449h-450v-330h450z" fill="#f5fbff"/><path d="m450 449h-225v-330h225z" fill="#cae1f9"/><g><path d="m450 135.01h-450v-76.01h450z" fill="#48568c"/></g><g><path d="m450 135.01h-225v-76.01h225z" fill="#2c3b73"/></g><g fill="#ffb725"><path d="m150 394.737h-90v-90h90z"/><path d="m150 274.737h-90v-90h90z"/><path d="m270 274.737h-90v-90h90z"/></g><path d="m270 274.737h-45v-90h45z" fill="#ff9000"/><path d="m270 394.737h-90v-90h90z" fill="#ffb725"/><path d="m270 394.737h-45v-90h45z" fill="#ff9000"/><path d="m390 274.737h-90v-90h90z" fill="#ff9000"/><g><g><path d="m383.923 512c-70.622 0-128.077-57.455-128.077-128.077s57.455-128.077 128.077-128.077 128.077 57.455 128.077 128.077-57.455 128.077-128.077 128.077z" fill="#48568c"/></g></g><path d="m383.923 255.846v256.154c70.622 0 128.077-57.455 128.077-128.077s-57.455-128.077-128.077-128.077z" fill="#2c3b73"/><path d="m370.338 439.615-52.396-52.395 21.213-21.213 31.183 31.183 58.352-58.353 21.213 21.213z" fill="#f5fbff"/><path d="m428.69 338.837-44.767 44.767v42.426l65.98-65.98z" fill="#cae1f9"/><g><path d="m105 106.306c-24.813 0-45-20.187-45-45v-16.307c0-24.812 20.187-44.999 45-44.999s45 20.187 45 44.999v16.307c0 24.813-20.187 45-45 45z" fill="#ffe375"/></g><g><path d="m345 106.306c-24.813 0-45-20.187-45-45v-16.307c0-24.812 20.187-44.999 45-44.999s45 20.187 45 44.999v16.307c0 24.813-20.187 45-45 45z" fill="#ffb725"/></g></g></svg>