<svg id="Capa_1" enable-background="new 0 0 512.113 512.113" height="512" viewBox="0 0 512.113 512.113" width="512" xmlns="http://www.w3.org/2000/svg"><g><path d="m416.963 468.525h-321.813v-239.353l-95.15-81.647 103.938-103.937h304.238l103.938 103.938-95.15 81.647v239.352z" fill="#f5fbff"/><path d="m408.176 43.588h-152.119v424.937h160.906v-239.352l95.15-81.648z" fill="#cae1f9"/><path d="m256.056 133.373c-41.236 0-74.784-33.548-74.784-74.784v-15h149.57v15c0 41.236-33.549 74.784-74.786 74.784z" fill="#fd4e26"/><path d="m256.057 43.589v89.784c41.237-.001 74.785-33.548 74.785-74.784v-15z" fill="#d8270f"/><path d="m325.445 347.648h-138.777v-25.169c0-18.658 7.583-35.227 21.352-46.65 12.461-10.341 29.521-16.035 48.036-16.035s35.574 5.694 48.037 16.034c13.77 11.425 21.353 27.993 21.353 46.651v25.169z" fill="#fd4e26"/><path d="m325.445 322.479c0-18.658-7.583-35.227-21.353-46.651-12.463-10.34-29.522-16.034-48.036-16.034v87.854h69.389z" fill="#d8270f"/><path d="m186.682 377.629h138.75v30h-138.75z" fill="#ffb725"/><path d="m256.057 377.629h69.375v30h-69.375z" fill="#ff9000"/><path d="m256.057 289.794c-25.554 0-46.343-20.789-46.343-46.343 0-25.553 20.789-46.342 46.343-46.342s46.343 20.789 46.343 46.342c-.001 25.554-20.79 46.343-46.343 46.343z" fill="#f9c4b9"/><path d="m256.057 197.109v92.685c25.554 0 46.343-20.789 46.343-46.343-.001-25.553-20.79-46.342-46.343-46.342z" fill="#ffb19e"/></g></svg>