<svg id="Capa_1" enable-background="new 0 0 512 512" height="512" viewBox="0 0 512 512" width="512" xmlns="http://www.w3.org/2000/svg"><g><path d="m325.35 437h30v60.084h-30z" fill="#2c3b73"/><path d="m156.65 437h30v60.084h-30z" fill="#48568c"/><path d="m415.35 452.084h-318.7v-452.084h318.7z" fill="#f5fbff"/><path d="m415.35 452.084h-159.35v-452.084h159.35z" fill="#cae1f9"/><path d="m157.756 299.756h196.488v30h-196.488z" fill="#50c5ff"/><path d="m256 299.756h98.244v30h-98.244z" fill="#488aff"/><path d="m157.757 359.881h196.486v30h-196.486z" fill="#50c5ff"/><path d="m256 359.881h98.243v30h-98.243z" fill="#488aff"/><path d="m97 482h318v30h-318z" fill="#48568c"/><path d="m256 482h159v30h-159z" fill="#2c3b73"/><path d="m353.411 269.247h-194.822v-30.408c0-25.932 10.497-48.923 29.559-64.738 17.499-14.52 41.596-22.516 67.851-22.516 26.256 0 50.353 7.996 67.852 22.515 19.063 15.816 29.561 38.808 29.561 64.739v30.408z" fill="#48568c"/><path d="m353.411 238.839c0-25.932-10.498-48.923-29.561-64.739-17.499-14.518-41.595-22.514-67.851-22.515v117.662h97.411v-30.408z" fill="#2c3b73"/><path d="m256 181.585c-34.457 0-62.49-28.033-62.49-62.49s28.033-62.49 62.49-62.49 62.49 28.033 62.49 62.49-28.033 62.49-62.49 62.49z" fill="#f9c4b9"/><path d="m256 56.604v124.981c34.457 0 62.49-28.033 62.49-62.49s-28.033-62.491-62.49-62.491z" fill="#ffb19e"/></g></svg>