<svg id="Capa_1" enable-background="new 0 0 512.084 512.084" height="512" viewBox="0 0 512.084 512.084" width="512" xmlns="http://www.w3.org/2000/svg"><g><path d="m452.042 512.084h-347c-24.813 0-45-20.186-45-45v-422.167h30c0 8.271 6.729 15 15 15h347z" fill="#50c5ff"/><path d="m452.042 59.917h-151-45v452.167h196z" fill="#488aff"/><path d="m408.02 44.959c0-16.232 12.911-29.439 29.022-29.935v-.024h-332.042c-16.545 0-29.958 13.412-29.958 29.958 0 16.546 13.413 29.958 29.958 29.958h332.042v-.024c-16.111-.495-29.022-13.702-29.022-29.933z" fill="#f5fbff"/><path d="m437.042 15.024v-.024h-181v59.917h181v-.024c-16.111-.496-29.022-13.703-29.022-29.934 0-16.232 12.911-29.44 29.022-29.935z" fill="#cae1f9"/><path d="m452.042 59.917h-347.042c-8.248 0-14.958-6.711-14.958-14.959s6.71-14.958 14.958-14.958h347.042v-30h-347.042c-24.79 0-44.958 20.169-44.958 44.959s20.168 44.958 44.958 44.958h347.042z" fill="#48568c"/><path d="m256.042 59.917h196v30h-196z" fill="#2c3b73"/><path d="m256.042 0h196v30h-196z" fill="#2c3b73"/><g><path d="m125.876 376.167h260.333v30h-260.333z" fill="#48568c"/></g><path d="m256.042 376.167h130.167v30h-130.167z" fill="#2c3b73"/><g><path d="m181.708 436.292h148.667v30h-148.667z" fill="#48568c"/></g><path d="m256.042 436.292h74.334v30h-74.334z" fill="#2c3b73"/><path d="m271.042 193.692v115.85h35.67v30h-101.34v-30h35.67v-115.85h-59.33v-30h59.33v-32.65h30v32.65h59.33v30z" fill="#ffb725"/><path d="m271.042 193.692v115.85h35.67v30h-50.67v-208.5h15v32.65h59.33v30z" fill="#ff9000"/><g><path d="m172.366 225.041h-23.913c-12.319 0-22.306-9.987-22.306-22.306v-39.044h68.525v39.044c0 12.32-9.987 22.306-22.306 22.306z" fill="#ffe375"/><path d="m363.631 225.041h-23.913c-12.319 0-22.306-9.987-22.306-22.306v-39.044h68.525v39.044c0 12.32-9.986 22.306-22.306 22.306z" fill="#ffb725"/></g></g></svg>