<svg id="Capa_1" enable-background="new 0 0 512.05 512.05" height="512" viewBox="0 0 512.05 512.05" width="512" xmlns="http://www.w3.org/2000/svg"><g><g><path d="m92.848 122.563-4.581-29.649c9.724-1.502 19.754-3.468 29.454-5.368 36.286-7.109 73.807-14.459 112.831-2.483l-8.802 28.68c-31.834-9.769-64.1-3.449-98.261 3.244-9.991 1.958-20.322 3.982-30.641 5.576z" fill="#ffb725"/></g><g><path d="m419.252 122.563c-10.319-1.595-20.65-3.618-30.641-5.576-34.162-6.691-66.428-13.015-98.261-3.244l-8.802-28.68c39.024-11.978 76.544-4.624 112.831 2.483 9.7 1.9 19.73 3.866 29.454 5.368z" fill="#ff9000"/></g><path d="m55.484 287.358 35.074-127.801 35.073 127.801h31.11l-53.543-195.097h-25.281l-53.543 195.097z" fill="#f5fbff"/><path d="m90.559 387.029c-24.362 0-46.738-7.433-63.005-20.93-17.769-14.742-27.554-36.163-27.554-60.315v-29.127h181.115v29.127c0 24.152-9.785 45.573-27.551 60.314-16.267 13.497-38.642 20.931-63.005 20.931z" fill="#ffb725"/><g><path d="m90.558 157.302c-27.327 0-49.559-22.232-49.559-49.56 0-27.327 22.232-49.56 49.559-49.56 27.328 0 49.56 22.232 49.56 49.56s-22.233 49.56-49.56 49.56z" fill="#ffe375"/></g><path d="m386.419 287.358 35.074-127.801 35.073 127.801h31.11l-53.543-195.097h-25.281l-53.543 195.097z" fill="#cae1f9"/><path d="m421.494 387.029c-24.362 0-46.738-7.433-63.005-20.93-17.768-14.742-27.553-36.163-27.553-60.315v-29.127h181.114v29.127c0 24.152-9.785 45.573-27.551 60.314-16.267 13.497-38.642 20.931-63.005 20.931z" fill="#ff9000"/><g><path d="m421.493 157.302c-27.327 0-49.56-22.232-49.56-49.56 0-27.327 22.232-49.56 49.56-49.56s49.56 22.232 49.56 49.56-22.233 49.56-49.56 49.56z" fill="#ffb725"/></g><path d="m301.059 451.395h-89.917v-416.81h89.917z" fill="#cae1f9"/><path d="m256.05 34.585h45.008v416.81h-45.008z" fill="#9fc6e2"/><path d="m449.198 512.025h-386.195v-45.63c0-24.814 20.187-45 45-45h296.194c24.813 0 45 20.186 45 45v45.63z" fill="#48568c"/><path d="m449.198 466.395c0-24.814-20.187-45-45-45h-148.148v90.63h193.147v-45.63z" fill="#2c3b73"/><g><path d="m256.1 99.144c-27.327 0-49.56-22.232-49.56-49.559s22.232-49.56 49.56-49.56 49.56 22.232 49.56 49.56c0 27.327-22.232 49.559-49.56 49.559z" fill="#ffe375"/></g><path d="m256.1.025c-.017 0-.033.001-.05.001v99.117c.017 0 .033.001.05.001 27.328 0 49.56-22.232 49.56-49.559s-22.232-49.56-49.56-49.56z" fill="#ffb725"/></g></svg>