<svg id="Capa_1" enable-background="new 0 0 512 512" height="512" viewBox="0 0 512 512" width="512" xmlns="http://www.w3.org/2000/svg"><g><path d="m266.014 471.213h-19.909l-53.584-121.821 27.619-12.148 71.71.012 27.628 12.124z" fill="#ffb725"/><path d="m319.478 349.38-27.628-12.124-35.85-.006v133.963h10.014z" fill="#ff9000"/><path d="m320.704 245.79h-20.684l-43.876-33.287-44.691 33.287h-20.618v-130.013h129.869z" fill="#50c5ff"/><path d="m256.144 115.777v96.726l43.876 33.287h20.684v-130.013z" fill="#488aff"/><path d="m17.223 432.071 19.916 5.584 51.233-20.206 34.045 44.117 19.853 5.566 35.1-125.186-125.047-35.061z" fill="#50c5ff"/><path d="m494.13 432.071-19.915 5.584-51.233-20.206-34.046 44.117-19.853 5.566-35.1-125.186 125.047-35.061z" fill="#488aff"/><path d="m90.431 222.747-19.177-5.344-18.911-131.735 29.865-4.286 69.075 19.263 23.359 19.096z" fill="#ffb725"/><path d="m421.491 222.747 19.178-5.344 18.911-131.735-29.866-4.286-69.074 19.263-23.359 19.096z" fill="#ff9000"/><g><path d="m255.996 360.576c-97.276 0-188.191-23.713-255.996-66.772l16.174-25.469c63.031 40.026 148.201 62.069 239.822 62.069 91.626 0 176.799-22.043 239.83-62.069l16.174 25.471c-67.805 43.057-158.723 66.77-256.004 66.77z" fill="#48568c"/></g><path d="m495.826 268.335c-63.03 40.025-148.202 62.068-239.826 62.069v30.172c97.28 0 188.196-23.713 256-66.769z" fill="#2c3b73"/><g><path d="m255.996 133.029c-97.276 0-188.191-23.714-255.996-66.772l16.174-25.469c63.031 40.026 148.201 62.069 239.822 62.069 91.626 0 176.799-22.043 239.83-62.069l16.174 25.471c-67.805 43.057-158.723 66.77-256.004 66.77z" fill="#48568c"/></g><path d="m495.826 40.788c-62.997 40.004-148.112 62.044-239.681 62.067v30.172c97.225-.024 188.085-23.733 255.856-66.768z" fill="#2c3b73"/></g></svg>