<svg id="Capa_1" enable-background="new 0 0 511.817 511.817" height="512" viewBox="0 0 511.817 511.817" width="512" xmlns="http://www.w3.org/2000/svg"><g><path d="m70.312 511.817-70.312-70.312 66.874-73.01 76.447 76.447z" fill="#f5fbff"/><path d="m35.156 476.661 35.156 35.156 73.009-66.874-38.223-38.224z" fill="#cae1f9"/><path d="m374.2 275.233c-35.257 0-70.514-13.421-97.354-40.262-26.005-26.004-40.326-60.578-40.326-97.354s14.321-71.351 40.326-97.355c53.681-53.682 141.027-53.682 194.71 0 53.682 53.683 53.682 141.029 0 194.71-26.841 26.84-62.098 40.261-97.356 40.261z" fill="#f5fbff"/><path d="m471.556 40.261-194.71 194.71c26.841 26.841 62.098 40.262 97.354 40.262 35.258 0 70.515-13.421 97.355-40.262 53.682-53.68 53.682-141.027.001-194.71z" fill="#cae1f9"/><path d="m481.582 223.785-193.55-193.55c-3.864 3.105-7.602 6.442-11.186 10.026-3.569 3.569-6.91 7.306-10.033 11.181l193.555 193.555c3.864-3.105 7.603-6.443 11.187-10.027 3.585-3.583 6.921-7.321 10.027-11.185z" fill="#cae1f9"/><path d="m384.807 127.01-21.213 21.213 96.775 96.775c3.864-3.105 7.603-6.443 11.187-10.027s6.921-7.322 10.026-11.186z" fill="#9fc6e2"/><path d="m134.209 478.255-100.647-100.647 219.477-239.612 120.783 120.783z" fill="#48568c"/><path d="m83.885 427.932 50.324 50.323 239.612-219.476-60.391-60.392z" fill="#2c3b73"/><g><g><path d="m360.592 360.592-209.367-209.367 85.843-85.842 209.365 209.365z" fill="#50c5ff"/></g><path d="m290.471 191.307h121.4v148.044h-121.4z" fill="#488aff" transform="matrix(.707 -.707 .707 .707 -84.76 326.028)"/></g><path d="m176.487 300.98h38.702v30h-38.702z" fill="#f5fbff" transform="matrix(.707 -.707 .707 .707 -166.072 231.026)"/><path d="m181.79 313.783h38.702v15h-38.702z" fill="#cae1f9" transform="matrix(.707 -.707 .707 .707 -168.269 236.331)"/></g></svg>