<svg id="Capa_1" enable-background="new 0 0 512 512" height="512" viewBox="0 0 512 512" width="512" xmlns="http://www.w3.org/2000/svg"><g><g><g><path d="m300.958 512h-89.916v-512h89.916z" fill="#48568c"/></g></g><g><g><path d="m300.958 512h-44.958v-512h44.958z" fill="#2c3b73"/></g></g><path d="m512 271.716h-512v-211.8h512z" fill="#ffb725"/><path d="m256 59.917h256v211.8h-256z" fill="#ff9000"/><path d="m97.372 110.3 20.183 67.517 19.892-67.517h29.766l-37.896 103.09h-23.521l-38.336-103.09z" fill="#f5fbff"/><path d="m360.761 134.983h-29.62v78.407h-28.313v-78.407h-29.766v-24.683h87.699z" fill="#cae1f9"/><path d="m444.54 188.707v24.684h-73.47v-103.091h72.163v24.684h-43.85v14.52h37.461v22.941h-37.461v16.262z" fill="#cae1f9"/><path d="m256 126.99c-9.55-10.27-23.19-16.69-38.33-16.69-28.91 0-52.35 23.41-52.35 52.27 0 28.87 23.44 52.27 52.35 52.27 15.14 0 28.78-6.42 38.33-16.69 8.7-9.33 14.01-21.84 14.01-35.58s-5.31-26.25-14.01-35.58zm-38.37 62.73c-13.01 0-23.56-12.15-23.56-27.15 0-14.99 10.55-27.15 23.56-27.15 13.02 0 23.57 12.16 23.57 27.15 0 15-10.55 27.15-23.57 27.15z" fill="#f5fbff"/><path d="m256 126.99v71.16c8.7-9.33 14.01-21.84 14.01-35.58s-5.31-26.25-14.01-35.58z" fill="#cae1f9"/></g></svg>