<svg id="Capa_1" enable-background="new 0 0 512 512" height="512" viewBox="0 0 512 512" width="512" xmlns="http://www.w3.org/2000/svg"><g><path d="m241 0h30v74.916h-30z" fill="#48568c"/><path d="m256 0h15v74.916h-15z" fill="#2c3b73"/><path d="m353.411 177.578h-194.822v-30.407c0-25.932 10.497-48.923 29.559-64.739 17.498-14.52 41.595-22.516 67.851-22.516 26.255 0 50.353 7.996 67.852 22.516 19.063 15.816 29.561 38.808 29.561 64.739v30.407z" fill="#50c5ff"/><path d="m353.411 147.171c0-25.932-10.498-48.923-29.561-64.739-17.498-14.52-41.595-22.516-67.85-22.516v117.662h97.411z" fill="#488aff"/><path d="m392.886 512h-273.772v-364.422h273.772z" fill="#48568c"/><path d="m392.886 512h-136.886v-364.422h136.886z" fill="#2c3b73"/><path d="m512 512h-60.019l-21.071-16.01h-351.822l-19.07 16.01h-60.018v-243.792h512z" fill="#48568c"/><path d="m512 512h-60.019l-21.071-16.01h-351.822l-19.07 16.01h195.982v-243.792h256z" fill="#2c3b73"/><g><path d="m451.981 512h-391.962v-303.792h391.963v303.792z" fill="#f5fbff"/></g><path d="m256 208.208h195.981v303.792h-195.981z" fill="#cae1f9"/><path d="m230.162 512h-111.048v-75.205c0-26.791 21.796-48.587 48.587-48.587h13.874c26.791 0 48.587 21.796 48.587 48.587z" fill="#ffb725"/><path d="m392.886 512h-111.048v-75.205c0-26.791 21.796-48.587 48.587-48.587h13.874c26.791 0 48.587 21.796 48.587 48.587z" fill="#ff9000"/><path d="m119.219 268.208h273.562v30h-273.562z" fill="#50c5ff"/><path d="m256 268.208h136.781v30h-136.781z" fill="#488aff"/><path d="m119.219 328.208h273.562v30h-273.562z" fill="#50c5ff"/><path d="m256 328.208h136.781v30h-136.781z" fill="#488aff"/></g></svg>