<svg id="Capa_1" enable-background="new 0 0 512.043 512.043" height="512" viewBox="0 0 512.043 512.043" width="512" xmlns="http://www.w3.org/2000/svg"><g><g><path d="m421.496 512.043h-89.916v-211.168h89.916z" fill="#48568c"/></g><g><path d="m421.496 512.043h-44.958v-211.168h44.958z" fill="#2c3b73"/></g><path d="m512.006 330.875h-270.998v-270.997h270.998z" fill="#50c5ff"/><path d="m512.006 330.875h-135.499v-270.997h135.499z" fill="#488aff"/><path d="m360.901 257.103-58.615-58.615 21.213-21.213 37.402 37.402 68.614-68.613 21.213 21.212z" fill="#f5fbff"/><path d="m429.515 146.064-53.008 53.006v42.426l74.221-74.22z" fill="#cae1f9"/><g><path d="m180.494 512.043h-89.916v-271.046h89.916z" fill="#48568c"/></g><g><path d="m180.494 512.043h-44.958v-271.046h44.958z" fill="#2c3b73"/></g><path d="m271.035 270.997h-270.998v-270.997h270.998z" fill="#f5fbff"/><path d="m271.035 270.997h-135.499v-270.997h135.499z" fill="#cae1f9"/><path d="m119.93 197.225-58.615-58.615 21.213-21.213 37.402 37.402 68.614-68.613 21.213 21.212z" fill="#50c5ff"/><path d="m188.544 86.186-53.008 53.007v42.425l74.221-74.22z" fill="#488aff"/></g></svg>