<svg id="Capa_1" enable-background="new 0 0 512.043 512.043" height="512" viewBox="0 0 512.043 512.043" width="512" xmlns="http://www.w3.org/2000/svg"><g><g><path d="m421.48 512.043h-89.916v-211.168h89.916z" fill="#48568c"/></g><g><path d="m421.48 512.043h-44.958v-211.168h44.958z" fill="#2c3b73"/></g><path d="m512.021 330.875h-270.998v-270.997h270.998z" fill="#fd4e26"/><path d="m512.021 330.875h-135.499v-270.997h135.499z" fill="#d8270f"/><path d="m449.073 144.114-21.213-21.213-51.338 51.337-51.337-51.337-21.213 21.213 51.338 51.337-51.338 51.337 21.213 21.213 51.337-51.337 51.338 51.337 21.213-21.213-51.338-51.337z" fill="#f5fbff"/><path d="m449.073 144.114-21.213-21.213-51.338 51.337v42.426l51.338 51.337 21.213-21.213-51.338-51.337z" fill="#cae1f9"/><g><path d="m180.479 512.043h-89.916v-271.046h89.916z" fill="#48568c"/></g><g><path d="m180.479 512.043h-44.959v-271.046h44.958v271.046z" fill="#2c3b73"/></g><path d="m271.02 270.997h-270.998v-270.997h270.998z" fill="#f5fbff"/><path d="m271.02 270.997h-135.5v-270.997h135.5z" fill="#cae1f9"/><path d="m208.071 84.236-21.213-21.213-51.338 51.337-51.337-51.337-21.213 21.213 51.338 51.337-51.338 51.337 21.213 21.213 51.337-51.337 51.338 51.337 21.213-21.213-51.338-51.337z" fill="#fd4e26"/><path d="m208.071 84.236-21.213-21.213-51.338 51.337v42.426l51.338 51.337 21.213-21.213-51.338-51.337z" fill="#d8270f"/></g></svg>